<svg xmlns="http://www.w3.org/2000/svg" viewBox="0 0 440 540" preserveAspectRatio="none" shape-rendering="crispEdges"><path fill="#fffdf7" d="M0 0h440v330H0zM0 330h3v3h-3zM3 330h3v3h-3zM6 330h3v3h-3zM9 330h3v3h-3zM12 330h3v3h-3zM15 330h3v3h-3zM18 330h3v3h-3zM21 330h3v3h-3zM24 330h3v3h-3zM27 330h3v3h-3zM30 330h3v3h-3zM33 330h3v3h-3zM36 330h3v3h-3zM39 330h3v3h-3zM42 330h3v3h-3zM45 330h3v3h-3zM48 330h3v3h-3zM51 330h3v3h-3zM54 330h3v3h-3zM57 330h3v3h-3zM60 330h3v3h-3zM63 330h3v3h-3zM66 330h3v3h-3zM69 330h3v3h-3zM72 330h3v3h-3zM75 330h3v3h-3zM78 330h3v3h-3zM81 330h3v3h-3zM84 330h3v3h-3zM87 330h3v3h-3zM90 330h3v3h-3zM93 330h3v3h-3zM96 330h3v3h-3zM99 330h3v3h-3zM102 330h3v3h-3zM105 330h3v3h-3zM108 330h3v3h-3zM111 330h3v3h-3zM114 330h3v3h-3zM117 330h3v3h-3zM120 330h3v3h-3zM123 330h3v3h-3zM126 330h3v3h-3zM129 330h3v3h-3zM132 330h3v3h-3zM135 330h3v3h-3zM138 330h3v3h-3zM141 330h3v3h-3zM144 330h3v3h-3zM147 330h3v3h-3zM150 330h3v3h-3zM153 330h3v3h-3zM156 330h3v3h-3zM159 330h3v3h-3zM162 330h3v3h-3zM165 330h3v3h-3zM168 330h3v3h-3zM171 330h3v3h-3zM174 330h3v3h-3zM177 330h3v3h-3zM180 330h3v3h-3zM183 330h3v3h-3zM186 330h3v3h-3zM189 330h3v3h-3zM192 330h3v3h-3zM195 330h3v3h-3zM198 330h3v3h-3zM201 330h3v3h-3zM204 330h3v3h-3zM207 330h3v3h-3zM210 330h3v3h-3zM213 330h3v3h-3zM216 330h3v3h-3zM219 330h3v3h-3zM222 330h3v3h-3zM225 330h3v3h-3zM228 330h3v3h-3zM231 330h3v3h-3zM234 330h3v3h-3zM237 330h3v3h-3zM240 330h3v3h-3zM243 330h3v3h-3zM246 330h3v3h-3zM249 330h3v3h-3zM252 330h3v3h-3zM255 330h3v3h-3zM258 330h3v3h-3zM261 330h3v3h-3zM264 330h3v3h-3zM267 330h3v3h-3zM270 330h3v3h-3zM273 330h3v3h-3zM276 330h3v3h-3zM279 330h3v3h-3zM282 330h3v3h-3zM285 330h3v3h-3zM288 330h3v3h-3zM291 330h3v3h-3zM294 330h3v3h-3zM297 330h3v3h-3zM300 330h3v3h-3zM303 330h3v3h-3zM306 330h3v3h-3zM309 330h3v3h-3zM312 330h3v3h-3zM315 330h3v3h-3zM318 330h3v3h-3zM321 330h3v3h-3zM324 330h3v3h-3zM327 330h3v3h-3zM330 330h3v3h-3zM333 330h3v3h-3zM336 330h3v3h-3zM339 330h3v3h-3zM342 330h3v3h-3zM345 330h3v3h-3zM348 330h3v3h-3zM351 330h3v3h-3zM354 330h3v3h-3zM357 330h3v3h-3zM360 330h3v3h-3zM363 330h3v3h-3zM366 330h3v3h-3zM369 330h3v3h-3zM372 330h3v3h-3zM375 330h3v3h-3zM378 330h3v3h-3zM381 330h3v3h-3zM384 330h3v3h-3zM387 330h3v3h-3zM390 330h3v3h-3zM393 330h3v3h-3zM396 330h3v3h-3zM399 330h3v3h-3zM402 330h3v3h-3zM405 330h3v3h-3zM408 330h3v3h-3zM411 330h3v3h-3zM414 330h3v3h-3zM417 330h3v3h-3zM420 330h3v3h-3zM423 330h3v3h-3zM426 330h3v3h-3zM429 330h3v3h-3zM432 330h3v3h-3zM435 330h3v3h-3zM438 330h3v3h-3zM0 333h3v3h-3zM3 333h3v3h-3zM6 333h3v3h-3zM9 333h3v3h-3zM12 333h3v3h-3zM15 333h3v3h-3zM18 333h3v3h-3zM21 333h3v3h-3zM24 333h3v3h-3zM27 333h3v3h-3zM30 333h3v3h-3zM33 333h3v3h-3zM36 333h3v3h-3zM39 333h3v3h-3zM42 333h3v3h-3zM45 333h3v3h-3zM48 333h3v3h-3zM51 333h3v3h-3zM54 333h3v3h-3zM57 333h3v3h-3zM60 333h3v3h-3zM63 333h3v3h-3zM66 333h3v3h-3zM69 333h3v3h-3zM72 333h3v3h-3zM75 333h3v3h-3zM78 333h3v3h-3zM81 333h3v3h-3zM84 333h3v3h-3zM87 333h3v3h-3zM90 333h3v3h-3zM93 333h3v3h-3zM96 333h3v3h-3zM99 333h3v3h-3zM102 333h3v3h-3zM105 333h3v3h-3zM108 333h3v3h-3zM111 333h3v3h-3zM114 333h3v3h-3zM117 333h3v3h-3zM120 333h3v3h-3zM123 333h3v3h-3zM126 333h3v3h-3zM129 333h3v3h-3zM132 333h3v3h-3zM135 333h3v3h-3zM138 333h3v3h-3zM141 333h3v3h-3zM144 333h3v3h-3zM147 333h3v3h-3zM150 333h3v3h-3zM153 333h3v3h-3zM156 333h3v3h-3zM159 333h3v3h-3zM162 333h3v3h-3zM165 333h3v3h-3zM168 333h3v3h-3zM171 333h3v3h-3zM174 333h3v3h-3zM177 333h3v3h-3zM180 333h3v3h-3zM183 333h3v3h-3zM186 333h3v3h-3zM189 333h3v3h-3zM192 333h3v3h-3zM195 333h3v3h-3zM198 333h3v3h-3zM201 333h3v3h-3zM204 333h3v3h-3zM207 333h3v3h-3zM210 333h3v3h-3zM213 333h3v3h-3zM216 333h3v3h-3zM219 333h3v3h-3zM222 333h3v3h-3zM225 333h3v3h-3zM228 333h3v3h-3zM231 333h3v3h-3zM234 333h3v3h-3zM237 333h3v3h-3zM240 333h3v3h-3zM243 333h3v3h-3zM246 333h3v3h-3zM249 333h3v3h-3zM252 333h3v3h-3zM255 333h3v3h-3zM258 333h3v3h-3zM261 333h3v3h-3zM264 333h3v3h-3zM267 333h3v3h-3zM270 333h3v3h-3zM273 333h3v3h-3zM276 333h3v3h-3zM279 333h3v3h-3zM282 333h3v3h-3zM285 333h3v3h-3zM288 333h3v3h-3zM291 333h3v3h-3zM294 333h3v3h-3zM297 333h3v3h-3zM300 333h3v3h-3zM303 333h3v3h-3zM306 333h3v3h-3zM309 333h3v3h-3zM312 333h3v3h-3zM315 333h3v3h-3zM318 333h3v3h-3zM321 333h3v3h-3zM324 333h3v3h-3zM327 333h3v3h-3zM330 333h3v3h-3zM333 333h3v3h-3zM336 333h3v3h-3zM339 333h3v3h-3zM342 333h3v3h-3zM345 333h3v3h-3zM348 333h3v3h-3zM351 333h3v3h-3zM354 333h3v3h-3zM357 333h3v3h-3zM360 333h3v3h-3zM363 333h3v3h-3zM366 333h3v3h-3zM369 333h3v3h-3zM372 333h3v3h-3zM375 333h3v3h-3zM378 333h3v3h-3zM381 333h3v3h-3zM384 333h3v3h-3zM387 333h3v3h-3zM390 333h3v3h-3zM393 333h3v3h-3zM396 333h3v3h-3zM399 333h3v3h-3zM402 333h3v3h-3zM405 333h3v3h-3zM408 333h3v3h-3zM411 333h3v3h-3zM414 333h3v3h-3zM417 333h3v3h-3zM420 333h3v3h-3zM423 333h3v3h-3zM426 333h3v3h-3zM429 333h3v3h-3zM432 333h3v3h-3zM435 333h3v3h-3zM438 333h3v3h-3zM0 336h3v3h-3zM3 336h3v3h-3zM6 336h3v3h-3zM9 336h3v3h-3zM12 336h3v3h-3zM15 336h3v3h-3zM18 336h3v3h-3zM21 336h3v3h-3zM24 336h3v3h-3zM27 336h3v3h-3zM30 336h3v3h-3zM33 336h3v3h-3zM36 336h3v3h-3zM39 336h3v3h-3zM42 336h3v3h-3zM45 336h3v3h-3zM48 336h3v3h-3zM51 336h3v3h-3zM54 336h3v3h-3zM57 336h3v3h-3zM60 336h3v3h-3zM63 336h3v3h-3zM66 336h3v3h-3zM69 336h3v3h-3zM72 336h3v3h-3zM75 336h3v3h-3zM78 336h3v3h-3zM81 336h3v3h-3zM84 336h3v3h-3zM87 336h3v3h-3zM90 336h3v3h-3zM93 336h3v3h-3zM96 336h3v3h-3zM99 336h3v3h-3zM102 336h3v3h-3zM105 336h3v3h-3zM108 336h3v3h-3zM111 336h3v3h-3zM114 336h3v3h-3zM117 336h3v3h-3zM120 336h3v3h-3zM123 336h3v3h-3zM126 336h3v3h-3zM129 336h3v3h-3zM132 336h3v3h-3zM135 336h3v3h-3zM138 336h3v3h-3zM141 336h3v3h-3zM144 336h3v3h-3zM147 336h3v3h-3zM150 336h3v3h-3zM153 336h3v3h-3zM156 336h3v3h-3zM159 336h3v3h-3zM162 336h3v3h-3zM165 336h3v3h-3zM168 336h3v3h-3zM171 336h3v3h-3zM174 336h3v3h-3zM177 336h3v3h-3zM180 336h3v3h-3zM183 336h3v3h-3zM186 336h3v3h-3zM189 336h3v3h-3zM192 336h3v3h-3zM195 336h3v3h-3zM198 336h3v3h-3zM201 336h3v3h-3zM204 336h3v3h-3zM207 336h3v3h-3zM210 336h3v3h-3zM213 336h3v3h-3zM216 336h3v3h-3zM219 336h3v3h-3zM222 336h3v3h-3zM225 336h3v3h-3zM228 336h3v3h-3zM231 336h3v3h-3zM234 336h3v3h-3zM237 336h3v3h-3zM240 336h3v3h-3zM243 336h3v3h-3zM246 336h3v3h-3zM249 336h3v3h-3zM252 336h3v3h-3zM255 336h3v3h-3zM258 336h3v3h-3zM261 336h3v3h-3zM264 336h3v3h-3zM267 336h3v3h-3zM270 336h3v3h-3zM273 336h3v3h-3zM276 336h3v3h-3zM279 336h3v3h-3zM282 336h3v3h-3zM285 336h3v3h-3zM288 336h3v3h-3zM291 336h3v3h-3zM294 336h3v3h-3zM297 336h3v3h-3zM300 336h3v3h-3zM303 336h3v3h-3zM306 336h3v3h-3zM309 336h3v3h-3zM312 336h3v3h-3zM315 336h3v3h-3zM318 336h3v3h-3zM321 336h3v3h-3zM324 336h3v3h-3zM327 336h3v3h-3zM330 336h3v3h-3zM333 336h3v3h-3zM336 336h3v3h-3zM339 336h3v3h-3zM342 336h3v3h-3zM345 336h3v3h-3zM348 336h3v3h-3zM351 336h3v3h-3zM354 336h3v3h-3zM357 336h3v3h-3zM360 336h3v3h-3zM363 336h3v3h-3zM366 336h3v3h-3zM369 336h3v3h-3zM372 336h3v3h-3zM375 336h3v3h-3zM378 336h3v3h-3zM381 336h3v3h-3zM384 336h3v3h-3zM387 336h3v3h-3zM390 336h3v3h-3zM393 336h3v3h-3zM396 336h3v3h-3zM399 336h3v3h-3zM402 336h3v3h-3zM405 336h3v3h-3zM408 336h3v3h-3zM411 336h3v3h-3zM414 336h3v3h-3zM417 336h3v3h-3zM420 336h3v3h-3zM423 336h3v3h-3zM426 336h3v3h-3zM429 336h3v3h-3zM432 336h3v3h-3zM435 336h3v3h-3zM438 336h3v3h-3zM0 339h3v3h-3zM3 339h3v3h-3zM6 339h3v3h-3zM9 339h3v3h-3zM12 339h3v3h-3zM15 339h3v3h-3zM18 339h3v3h-3zM21 339h3v3h-3zM24 339h3v3h-3zM27 339h3v3h-3zM30 339h3v3h-3zM33 339h3v3h-3zM36 339h3v3h-3zM39 339h3v3h-3zM42 339h3v3h-3zM45 339h3v3h-3zM48 339h3v3h-3zM51 339h3v3h-3zM54 339h3v3h-3zM57 339h3v3h-3zM60 339h3v3h-3zM63 339h3v3h-3zM66 339h3v3h-3zM69 339h3v3h-3zM72 339h3v3h-3zM75 339h3v3h-3zM78 339h3v3h-3zM81 339h3v3h-3zM84 339h3v3h-3zM87 339h3v3h-3zM90 339h3v3h-3zM93 339h3v3h-3zM96 339h3v3h-3zM99 339h3v3h-3zM102 339h3v3h-3zM108 339h3v3h-3zM111 339h3v3h-3zM117 339h3v3h-3zM120 339h3v3h-3zM123 339h3v3h-3zM126 339h3v3h-3zM129 339h3v3h-3zM132 339h3v3h-3zM135 339h3v3h-3zM138 339h3v3h-3zM141 339h3v3h-3zM144 339h3v3h-3zM147 339h3v3h-3zM150 339h3v3h-3zM153 339h3v3h-3zM156 339h3v3h-3zM159 339h3v3h-3zM162 339h3v3h-3zM165 339h3v3h-3zM168 339h3v3h-3zM171 339h3v3h-3zM174 339h3v3h-3zM177 339h3v3h-3zM180 339h3v3h-3zM183 339h3v3h-3zM186 339h3v3h-3zM189 339h3v3h-3zM192 339h3v3h-3zM195 339h3v3h-3zM198 339h3v3h-3zM201 339h3v3h-3zM204 339h3v3h-3zM207 339h3v3h-3zM210 339h3v3h-3zM213 339h3v3h-3zM216 339h3v3h-3zM219 339h3v3h-3zM222 339h3v3h-3zM225 339h3v3h-3zM228 339h3v3h-3zM231 339h3v3h-3zM234 339h3v3h-3zM237 339h3v3h-3zM240 339h3v3h-3zM243 339h3v3h-3zM246 339h3v3h-3zM249 339h3v3h-3zM252 339h3v3h-3zM255 339h3v3h-3zM258 339h3v3h-3zM261 339h3v3h-3zM264 339h3v3h-3zM267 339h3v3h-3zM270 339h3v3h-3zM273 339h3v3h-3zM276 339h3v3h-3zM279 339h3v3h-3zM282 339h3v3h-3zM285 339h3v3h-3zM288 339h3v3h-3zM291 339h3v3h-3zM294 339h3v3h-3zM297 339h3v3h-3zM300 339h3v3h-3zM303 339h3v3h-3zM306 339h3v3h-3zM309 339h3v3h-3zM312 339h3v3h-3zM315 339h3v3h-3zM318 339h3v3h-3zM321 339h3v3h-3zM324 339h3v3h-3zM327 339h3v3h-3zM330 339h3v3h-3zM333 339h3v3h-3zM336 339h3v3h-3zM339 339h3v3h-3zM342 339h3v3h-3zM345 339h3v3h-3zM348 339h3v3h-3zM351 339h3v3h-3zM354 339h3v3h-3zM357 339h3v3h-3zM360 339h3v3h-3zM363 339h3v3h-3zM366 339h3v3h-3zM369 339h3v3h-3zM372 339h3v3h-3zM375 339h3v3h-3zM378 339h3v3h-3zM381 339h3v3h-3zM384 339h3v3h-3zM387 339h3v3h-3zM390 339h3v3h-3zM393 339h3v3h-3zM396 339h3v3h-3zM399 339h3v3h-3zM402 339h3v3h-3zM405 339h3v3h-3zM408 339h3v3h-3zM411 339h3v3h-3zM414 339h3v3h-3zM417 339h3v3h-3zM420 339h3v3h-3zM423 339h3v3h-3zM426 339h3v3h-3zM429 339h3v3h-3zM432 339h3v3h-3zM438 339h3v3h-3zM0 342h3v3h-3zM3 342h3v3h-3zM6 342h3v3h-3zM9 342h3v3h-3zM12 342h3v3h-3zM15 342h3v3h-3zM18 342h3v3h-3zM21 342h3v3h-3zM24 342h3v3h-3zM27 342h3v3h-3zM30 342h3v3h-3zM33 342h3v3h-3zM36 342h3v3h-3zM39 342h3v3h-3zM42 342h3v3h-3zM45 342h3v3h-3zM48 342h3v3h-3zM51 342h3v3h-3zM54 342h3v3h-3zM57 342h3v3h-3zM60 342h3v3h-3zM63 342h3v3h-3zM66 342h3v3h-3zM69 342h3v3h-3zM72 342h3v3h-3zM75 342h3v3h-3zM78 342h3v3h-3zM81 342h3v3h-3zM84 342h3v3h-3zM87 342h3v3h-3zM90 342h3v3h-3zM93 342h3v3h-3zM96 342h3v3h-3zM105 342h3v3h-3zM108 342h3v3h-3zM114 342h3v3h-3zM117 342h3v3h-3zM120 342h3v3h-3zM123 342h3v3h-3zM126 342h3v3h-3zM129 342h3v3h-3zM132 342h3v3h-3zM135 342h3v3h-3zM138 342h3v3h-3zM141 342h3v3h-3zM144 342h3v3h-3zM147 342h3v3h-3zM150 342h3v3h-3zM153 342h3v3h-3zM156 342h3v3h-3zM159 342h3v3h-3zM162 342h3v3h-3zM165 342h3v3h-3zM168 342h3v3h-3zM171 342h3v3h-3zM174 342h3v3h-3zM177 342h3v3h-3zM180 342h3v3h-3zM183 342h3v3h-3zM186 342h3v3h-3zM189 342h3v3h-3zM192 342h3v3h-3zM195 342h3v3h-3zM198 342h3v3h-3zM201 342h3v3h-3zM204 342h3v3h-3zM207 342h3v3h-3zM210 342h3v3h-3zM213 342h3v3h-3zM216 342h3v3h-3zM219 342h3v3h-3zM222 342h3v3h-3zM225 342h3v3h-3zM228 342h3v3h-3zM231 342h3v3h-3zM234 342h3v3h-3zM237 342h3v3h-3zM240 342h3v3h-3zM246 342h3v3h-3zM249 342h3v3h-3zM252 342h3v3h-3zM255 342h3v3h-3zM258 342h3v3h-3zM261 342h3v3h-3zM264 342h3v3h-3zM267 342h3v3h-3zM270 342h3v3h-3zM273 342h3v3h-3zM276 342h3v3h-3zM279 342h3v3h-3zM282 342h3v3h-3zM285 342h3v3h-3zM288 342h3v3h-3zM294 342h3v3h-3zM297 342h3v3h-3zM300 342h3v3h-3zM306 342h3v3h-3zM309 342h3v3h-3zM312 342h3v3h-3zM315 342h3v3h-3zM318 342h3v3h-3zM321 342h3v3h-3zM324 342h3v3h-3zM327 342h3v3h-3zM330 342h3v3h-3zM333 342h3v3h-3zM336 342h3v3h-3zM339 342h3v3h-3zM342 342h3v3h-3zM345 342h3v3h-3zM348 342h3v3h-3zM351 342h3v3h-3zM354 342h3v3h-3zM357 342h3v3h-3zM360 342h3v3h-3zM363 342h3v3h-3zM366 342h3v3h-3zM369 342h3v3h-3zM372 342h3v3h-3zM375 342h3v3h-3zM378 342h3v3h-3zM381 342h3v3h-3zM384 342h3v3h-3zM387 342h3v3h-3zM390 342h3v3h-3zM393 342h3v3h-3zM396 342h3v3h-3zM399 342h3v3h-3zM402 342h3v3h-3zM405 342h3v3h-3zM408 342h3v3h-3zM411 342h3v3h-3zM414 342h3v3h-3zM417 342h3v3h-3zM420 342h3v3h-3zM423 342h3v3h-3zM426 342h3v3h-3zM429 342h3v3h-3zM432 342h3v3h-3zM435 342h3v3h-3zM438 342h3v3h-3zM0 345h3v3h-3zM3 345h3v3h-3zM6 345h3v3h-3zM9 345h3v3h-3zM12 345h3v3h-3zM15 345h3v3h-3zM18 345h3v3h-3zM21 345h3v3h-3zM24 345h3v3h-3zM27 345h3v3h-3zM30 345h3v3h-3zM33 345h3v3h-3zM36 345h3v3h-3zM39 345h3v3h-3zM42 345h3v3h-3zM45 345h3v3h-3zM48 345h3v3h-3zM51 345h3v3h-3zM54 345h3v3h-3zM57 345h3v3h-3zM60 345h3v3h-3zM63 345h3v3h-3zM66 345h3v3h-3zM69 345h3v3h-3zM72 345h3v3h-3zM75 345h3v3h-3zM78 345h3v3h-3zM81 345h3v3h-3zM84 345h3v3h-3zM87 345h3v3h-3zM90 345h3v3h-3zM93 345h3v3h-3zM96 345h3v3h-3zM99 345h3v3h-3zM102 345h3v3h-3zM105 345h3v3h-3zM111 345h3v3h-3zM114 345h3v3h-3zM117 345h3v3h-3zM123 345h3v3h-3zM126 345h3v3h-3zM132 345h3v3h-3zM135 345h3v3h-3zM138 345h3v3h-3zM141 345h3v3h-3zM144 345h3v3h-3zM147 345h3v3h-3zM150 345h3v3h-3zM153 345h3v3h-3zM156 345h3v3h-3zM159 345h3v3h-3zM162 345h3v3h-3zM165 345h3v3h-3zM168 345h3v3h-3zM171 345h3v3h-3zM174 345h3v3h-3zM177 345h3v3h-3zM180 345h3v3h-3zM183 345h3v3h-3zM186 345h3v3h-3zM189 345h3v3h-3zM192 345h3v3h-3zM195 345h3v3h-3zM198 345h3v3h-3zM201 345h3v3h-3zM204 345h3v3h-3zM207 345h3v3h-3zM210 345h3v3h-3zM213 345h3v3h-3zM216 345h3v3h-3zM219 345h3v3h-3zM222 345h3v3h-3zM225 345h3v3h-3zM228 345h3v3h-3zM231 345h3v3h-3zM234 345h3v3h-3zM237 345h3v3h-3zM240 345h3v3h-3zM243 345h3v3h-3zM246 345h3v3h-3zM249 345h3v3h-3zM252 345h3v3h-3zM255 345h3v3h-3zM258 345h3v3h-3zM261 345h3v3h-3zM264 345h3v3h-3zM267 345h3v3h-3zM270 345h3v3h-3zM273 345h3v3h-3zM276 345h3v3h-3zM279 345h3v3h-3zM282 345h3v3h-3zM285 345h3v3h-3zM288 345h3v3h-3zM291 345h3v3h-3zM294 345h3v3h-3zM303 345h3v3h-3zM306 345h3v3h-3zM309 345h3v3h-3zM315 345h3v3h-3zM318 345h3v3h-3zM321 345h3v3h-3zM324 345h3v3h-3zM327 345h3v3h-3zM330 345h3v3h-3zM333 345h3v3h-3zM336 345h3v3h-3zM339 345h3v3h-3zM342 345h3v3h-3zM345 345h3v3h-3zM348 345h3v3h-3zM351 345h3v3h-3zM354 345h3v3h-3zM357 345h3v3h-3zM360 345h3v3h-3zM363 345h3v3h-3zM366 345h3v3h-3zM369 345h3v3h-3zM372 345h3v3h-3zM375 345h3v3h-3zM378 345h3v3h-3zM381 345h3v3h-3zM384 345h3v3h-3zM387 345h3v3h-3zM390 345h3v3h-3zM393 345h3v3h-3zM396 345h3v3h-3zM399 345h3v3h-3zM402 345h3v3h-3zM405 345h3v3h-3zM408 345h3v3h-3zM411 345h3v3h-3zM414 345h3v3h-3zM417 345h3v3h-3zM420 345h3v3h-3zM423 345h3v3h-3zM426 345h3v3h-3zM429 345h3v3h-3zM432 345h3v3h-3zM435 345h3v3h-3zM438 345h3v3h-3zM0 348h3v3h-3zM3 348h3v3h-3zM6 348h3v3h-3zM9 348h3v3h-3zM12 348h3v3h-3zM15 348h3v3h-3zM18 348h3v3h-3zM21 348h3v3h-3zM24 348h3v3h-3zM27 348h3v3h-3zM30 348h3v3h-3zM33 348h3v3h-3zM36 348h3v3h-3zM39 348h3v3h-3zM42 348h3v3h-3zM45 348h3v3h-3zM48 348h3v3h-3zM51 348h3v3h-3zM54 348h3v3h-3zM57 348h3v3h-3zM60 348h3v3h-3zM63 348h3v3h-3zM66 348h3v3h-3zM69 348h3v3h-3zM72 348h3v3h-3zM75 348h3v3h-3zM78 348h3v3h-3zM81 348h3v3h-3zM84 348h3v3h-3zM87 348h3v3h-3zM90 348h3v3h-3zM93 348h3v3h-3zM96 348h3v3h-3zM102 348h3v3h-3zM108 348h3v3h-3zM111 348h3v3h-3zM114 348h3v3h-3zM123 348h3v3h-3zM126 348h3v3h-3zM129 348h3v3h-3zM132 348h3v3h-3zM135 348h3v3h-3zM138 348h3v3h-3zM141 348h3v3h-3zM144 348h3v3h-3zM147 348h3v3h-3zM150 348h3v3h-3zM153 348h3v3h-3zM156 348h3v3h-3zM159 348h3v3h-3zM162 348h3v3h-3zM165 348h3v3h-3zM168 348h3v3h-3zM171 348h3v3h-3zM174 348h3v3h-3zM177 348h3v3h-3zM180 348h3v3h-3zM183 348h3v3h-3zM186 348h3v3h-3zM189 348h3v3h-3zM192 348h3v3h-3zM195 348h3v3h-3zM198 348h3v3h-3zM201 348h3v3h-3zM204 348h3v3h-3zM207 348h3v3h-3zM210 348h3v3h-3zM213 348h3v3h-3zM216 348h3v3h-3zM219 348h3v3h-3zM222 348h3v3h-3zM225 348h3v3h-3zM228 348h3v3h-3zM231 348h3v3h-3zM234 348h3v3h-3zM237 348h3v3h-3zM240 348h3v3h-3zM243 348h3v3h-3zM246 348h3v3h-3zM249 348h3v3h-3zM252 348h3v3h-3zM255 348h3v3h-3zM258 348h3v3h-3zM261 348h3v3h-3zM264 348h3v3h-3zM267 348h3v3h-3zM270 348h3v3h-3zM273 348h3v3h-3zM276 348h3v3h-3zM279 348h3v3h-3zM282 348h3v3h-3zM285 348h3v3h-3zM291 348h3v3h-3zM294 348h3v3h-3zM297 348h3v3h-3zM300 348h3v3h-3zM303 348h3v3h-3zM306 348h3v3h-3zM309 348h3v3h-3zM312 348h3v3h-3zM315 348h3v3h-3zM318 348h3v3h-3zM321 348h3v3h-3zM324 348h3v3h-3zM327 348h3v3h-3zM330 348h3v3h-3zM333 348h3v3h-3zM336 348h3v3h-3zM339 348h3v3h-3zM342 348h3v3h-3zM345 348h3v3h-3zM348 348h3v3h-3zM351 348h3v3h-3zM354 348h3v3h-3zM357 348h3v3h-3zM360 348h3v3h-3zM363 348h3v3h-3zM366 348h3v3h-3zM369 348h3v3h-3zM372 348h3v3h-3zM375 348h3v3h-3zM378 348h3v3h-3zM381 348h3v3h-3zM384 348h3v3h-3zM387 348h3v3h-3zM390 348h3v3h-3zM393 348h3v3h-3zM396 348h3v3h-3zM399 348h3v3h-3zM402 348h3v3h-3zM405 348h3v3h-3zM408 348h3v3h-3zM411 348h3v3h-3zM414 348h3v3h-3zM417 348h3v3h-3zM420 348h3v3h-3zM423 348h3v3h-3zM426 348h3v3h-3zM429 348h3v3h-3zM432 348h3v3h-3zM435 348h3v3h-3zM438 348h3v3h-3zM0 351h3v3h-3zM3 351h3v3h-3zM6 351h3v3h-3zM9 351h3v3h-3zM12 351h3v3h-3zM15 351h3v3h-3zM18 351h3v3h-3zM21 351h3v3h-3zM24 351h3v3h-3zM27 351h3v3h-3zM30 351h3v3h-3zM33 351h3v3h-3zM36 351h3v3h-3zM39 351h3v3h-3zM42 351h3v3h-3zM45 351h3v3h-3zM48 351h3v3h-3zM51 351h3v3h-3zM54 351h3v3h-3zM57 351h3v3h-3zM60 351h3v3h-3zM63 351h3v3h-3zM66 351h3v3h-3zM69 351h3v3h-3zM72 351h3v3h-3zM75 351h3v3h-3zM78 351h3v3h-3zM81 351h3v3h-3zM84 351h3v3h-3zM87 351h3v3h-3zM90 351h3v3h-3zM93 351h3v3h-3zM96 351h3v3h-3zM99 351h3v3h-3zM102 351h3v3h-3zM105 351h3v3h-3zM108 351h3v3h-3zM111 351h3v3h-3zM114 351h3v3h-3zM120 351h3v3h-3zM123 351h3v3h-3zM126 351h3v3h-3zM129 351h3v3h-3zM132 351h3v3h-3zM135 351h3v3h-3zM138 351h3v3h-3zM141 351h3v3h-3zM144 351h3v3h-3zM147 351h3v3h-3zM150 351h3v3h-3zM153 351h3v3h-3zM156 351h3v3h-3zM159 351h3v3h-3zM165 351h3v3h-3zM168 351h3v3h-3zM171 351h3v3h-3zM174 351h3v3h-3zM177 351h3v3h-3zM180 351h3v3h-3zM183 351h3v3h-3zM186 351h3v3h-3zM189 351h3v3h-3zM192 351h3v3h-3zM195 351h3v3h-3zM198 351h3v3h-3zM201 351h3v3h-3zM204 351h3v3h-3zM207 351h3v3h-3zM210 351h3v3h-3zM213 351h3v3h-3zM216 351h3v3h-3zM219 351h3v3h-3zM222 351h3v3h-3zM225 351h3v3h-3zM228 351h3v3h-3zM231 351h3v3h-3zM234 351h3v3h-3zM243 351h3v3h-3zM246 351h3v3h-3zM249 351h3v3h-3zM252 351h3v3h-3zM255 351h3v3h-3zM258 351h3v3h-3zM261 351h3v3h-3zM264 351h3v3h-3zM267 351h3v3h-3zM270 351h3v3h-3zM273 351h3v3h-3zM276 351h3v3h-3zM279 351h3v3h-3zM282 351h3v3h-3zM285 351h3v3h-3zM288 351h3v3h-3zM291 351h3v3h-3zM294 351h3v3h-3zM297 351h3v3h-3zM300 351h3v3h-3zM303 351h3v3h-3zM306 351h3v3h-3zM309 351h3v3h-3zM312 351h3v3h-3zM315 351h3v3h-3zM318 351h3v3h-3zM321 351h3v3h-3zM324 351h3v3h-3zM327 351h3v3h-3zM330 351h3v3h-3zM333 351h3v3h-3zM336 351h3v3h-3zM339 351h3v3h-3zM342 351h3v3h-3zM345 351h3v3h-3zM348 351h3v3h-3zM351 351h3v3h-3zM354 351h3v3h-3zM357 351h3v3h-3zM360 351h3v3h-3zM363 351h3v3h-3zM366 351h3v3h-3zM369 351h3v3h-3zM372 351h3v3h-3zM375 351h3v3h-3zM378 351h3v3h-3zM381 351h3v3h-3zM384 351h3v3h-3zM387 351h3v3h-3zM390 351h3v3h-3zM393 351h3v3h-3zM396 351h3v3h-3zM399 351h3v3h-3zM402 351h3v3h-3zM405 351h3v3h-3zM408 351h3v3h-3zM411 351h3v3h-3zM414 351h3v3h-3zM417 351h3v3h-3zM420 351h3v3h-3zM423 351h3v3h-3zM429 351h3v3h-3zM432 351h3v3h-3zM435 351h3v3h-3zM438 351h3v3h-3zM0 354h3v3h-3zM3 354h3v3h-3zM6 354h3v3h-3zM9 354h3v3h-3zM12 354h3v3h-3zM15 354h3v3h-3zM18 354h3v3h-3zM21 354h3v3h-3zM24 354h3v3h-3zM27 354h3v3h-3zM30 354h3v3h-3zM33 354h3v3h-3zM36 354h3v3h-3zM39 354h3v3h-3zM42 354h3v3h-3zM45 354h3v3h-3zM48 354h3v3h-3zM51 354h3v3h-3zM54 354h3v3h-3zM60 354h3v3h-3zM63 354h3v3h-3zM66 354h3v3h-3zM69 354h3v3h-3zM72 354h3v3h-3zM75 354h3v3h-3zM78 354h3v3h-3zM81 354h3v3h-3zM84 354h3v3h-3zM87 354h3v3h-3zM90 354h3v3h-3zM93 354h3v3h-3zM96 354h3v3h-3zM99 354h3v3h-3zM102 354h3v3h-3zM105 354h3v3h-3zM108 354h3v3h-3zM111 354h3v3h-3zM114 354h3v3h-3zM117 354h3v3h-3zM120 354h3v3h-3zM123 354h3v3h-3zM126 354h3v3h-3zM129 354h3v3h-3zM132 354h3v3h-3zM135 354h3v3h-3zM138 354h3v3h-3zM141 354h3v3h-3zM144 354h3v3h-3zM147 354h3v3h-3zM150 354h3v3h-3zM153 354h3v3h-3zM156 354h3v3h-3zM159 354h3v3h-3zM165 354h3v3h-3zM168 354h3v3h-3zM171 354h3v3h-3zM174 354h3v3h-3zM177 354h3v3h-3zM180 354h3v3h-3zM183 354h3v3h-3zM186 354h3v3h-3zM189 354h3v3h-3zM192 354h3v3h-3zM195 354h3v3h-3zM198 354h3v3h-3zM201 354h3v3h-3zM204 354h3v3h-3zM207 354h3v3h-3zM210 354h3v3h-3zM213 354h3v3h-3zM216 354h3v3h-3zM219 354h3v3h-3zM222 354h3v3h-3zM225 354h3v3h-3zM228 354h3v3h-3zM234 354h3v3h-3zM237 354h3v3h-3zM240 354h3v3h-3zM243 354h3v3h-3zM246 354h3v3h-3zM249 354h3v3h-3zM252 354h3v3h-3zM255 354h3v3h-3zM258 354h3v3h-3zM261 354h3v3h-3zM264 354h3v3h-3zM267 354h3v3h-3zM270 354h3v3h-3zM273 354h3v3h-3zM276 354h3v3h-3zM279 354h3v3h-3zM282 354h3v3h-3zM288 354h3v3h-3zM291 354h3v3h-3zM294 354h3v3h-3zM297 354h3v3h-3zM303 354h3v3h-3zM306 354h3v3h-3zM309 354h3v3h-3zM312 354h3v3h-3zM315 354h3v3h-3zM318 354h3v3h-3zM321 354h3v3h-3zM327 354h3v3h-3zM330 354h3v3h-3zM333 354h3v3h-3zM336 354h3v3h-3zM339 354h3v3h-3zM342 354h3v3h-3zM345 354h3v3h-3zM348 354h3v3h-3zM351 354h3v3h-3zM354 354h3v3h-3zM357 354h3v3h-3zM360 354h3v3h-3zM363 354h3v3h-3zM369 354h3v3h-3zM372 354h3v3h-3zM375 354h3v3h-3zM378 354h3v3h-3zM381 354h3v3h-3zM384 354h3v3h-3zM387 354h3v3h-3zM390 354h3v3h-3zM393 354h3v3h-3zM396 354h3v3h-3zM399 354h3v3h-3zM402 354h3v3h-3zM405 354h3v3h-3zM408 354h3v3h-3zM411 354h3v3h-3zM414 354h3v3h-3zM420 354h3v3h-3zM423 354h3v3h-3zM426 354h3v3h-3zM432 354h3v3h-3zM435 354h3v3h-3zM438 354h3v3h-3zM0 357h3v3h-3zM3 357h3v3h-3zM6 357h3v3h-3zM9 357h3v3h-3zM12 357h3v3h-3zM15 357h3v3h-3zM18 357h3v3h-3zM21 357h3v3h-3zM24 357h3v3h-3zM27 357h3v3h-3zM30 357h3v3h-3zM33 357h3v3h-3zM39 357h3v3h-3zM42 357h3v3h-3zM45 357h3v3h-3zM48 357h3v3h-3zM51 357h3v3h-3zM54 357h3v3h-3zM57 357h3v3h-3zM60 357h3v3h-3zM63 357h3v3h-3zM66 357h3v3h-3zM69 357h3v3h-3zM72 357h3v3h-3zM75 357h3v3h-3zM78 357h3v3h-3zM81 357h3v3h-3zM84 357h3v3h-3zM87 357h3v3h-3zM90 357h3v3h-3zM93 357h3v3h-3zM96 357h3v3h-3zM99 357h3v3h-3zM102 357h3v3h-3zM105 357h3v3h-3zM111 357h3v3h-3zM114 357h3v3h-3zM117 357h3v3h-3zM120 357h3v3h-3zM123 357h3v3h-3zM126 357h3v3h-3zM129 357h3v3h-3zM135 357h3v3h-3zM138 357h3v3h-3zM141 357h3v3h-3zM144 357h3v3h-3zM147 357h3v3h-3zM150 357h3v3h-3zM153 357h3v3h-3zM156 357h3v3h-3zM159 357h3v3h-3zM162 357h3v3h-3zM165 357h3v3h-3zM168 357h3v3h-3zM171 357h3v3h-3zM174 357h3v3h-3zM177 357h3v3h-3zM180 357h3v3h-3zM183 357h3v3h-3zM186 357h3v3h-3zM189 357h3v3h-3zM192 357h3v3h-3zM195 357h3v3h-3zM198 357h3v3h-3zM201 357h3v3h-3zM204 357h3v3h-3zM207 357h3v3h-3zM210 357h3v3h-3zM213 357h3v3h-3zM216 357h3v3h-3zM219 357h3v3h-3zM222 357h3v3h-3zM225 357h3v3h-3zM228 357h3v3h-3zM234 357h3v3h-3zM237 357h3v3h-3zM240 357h3v3h-3zM243 357h3v3h-3zM246 357h3v3h-3zM249 357h3v3h-3zM255 357h3v3h-3zM258 357h3v3h-3zM267 357h3v3h-3zM270 357h3v3h-3zM276 357h3v3h-3zM279 357h3v3h-3zM282 357h3v3h-3zM288 357h3v3h-3zM291 357h3v3h-3zM294 357h3v3h-3zM297 357h3v3h-3zM300 357h3v3h-3zM303 357h3v3h-3zM306 357h3v3h-3zM309 357h3v3h-3zM312 357h3v3h-3zM315 357h3v3h-3zM318 357h3v3h-3zM321 357h3v3h-3zM324 357h3v3h-3zM327 357h3v3h-3zM333 357h3v3h-3zM336 357h3v3h-3zM339 357h3v3h-3zM342 357h3v3h-3zM345 357h3v3h-3zM348 357h3v3h-3zM351 357h3v3h-3zM354 357h3v3h-3zM357 357h3v3h-3zM363 357h3v3h-3zM369 357h3v3h-3zM372 357h3v3h-3zM375 357h3v3h-3zM378 357h3v3h-3zM381 357h3v3h-3zM384 357h3v3h-3zM387 357h3v3h-3zM390 357h3v3h-3zM393 357h3v3h-3zM396 357h3v3h-3zM399 357h3v3h-3zM402 357h3v3h-3zM405 357h3v3h-3zM408 357h3v3h-3zM411 357h3v3h-3zM414 357h3v3h-3zM417 357h3v3h-3zM420 357h3v3h-3zM423 357h3v3h-3zM426 357h3v3h-3zM429 357h3v3h-3zM432 357h3v3h-3zM435 357h3v3h-3zM438 357h3v3h-3zM0 360h3v3h-3zM3 360h3v3h-3zM6 360h3v3h-3zM9 360h3v3h-3zM12 360h3v3h-3zM15 360h3v3h-3zM18 360h3v3h-3zM21 360h3v3h-3zM24 360h3v3h-3zM27 360h3v3h-3zM30 360h3v3h-3zM33 360h3v3h-3zM36 360h3v3h-3zM39 360h3v3h-3zM42 360h3v3h-3zM45 360h3v3h-3zM48 360h3v3h-3zM51 360h3v3h-3zM57 360h3v3h-3zM60 360h3v3h-3zM63 360h3v3h-3zM66 360h3v3h-3zM69 360h3v3h-3zM72 360h3v3h-3zM75 360h3v3h-3zM78 360h3v3h-3zM81 360h3v3h-3zM84 360h3v3h-3zM87 360h3v3h-3zM90 360h3v3h-3zM93 360h3v3h-3zM96 360h3v3h-3zM99 360h3v3h-3zM102 360h3v3h-3zM105 360h3v3h-3zM108 360h3v3h-3zM111 360h3v3h-3zM114 360h3v3h-3zM117 360h3v3h-3zM120 360h3v3h-3zM123 360h3v3h-3zM126 360h3v3h-3zM129 360h3v3h-3zM132 360h3v3h-3zM135 360h3v3h-3zM138 360h3v3h-3zM141 360h3v3h-3zM144 360h3v3h-3zM147 360h3v3h-3zM150 360h3v3h-3zM153 360h3v3h-3zM156 360h3v3h-3zM159 360h3v3h-3zM162 360h3v3h-3zM165 360h3v3h-3zM168 360h3v3h-3zM171 360h3v3h-3zM174 360h3v3h-3zM177 360h3v3h-3zM183 360h3v3h-3zM186 360h3v3h-3zM189 360h3v3h-3zM192 360h3v3h-3zM195 360h3v3h-3zM198 360h3v3h-3zM201 360h3v3h-3zM204 360h3v3h-3zM207 360h3v3h-3zM210 360h3v3h-3zM213 360h3v3h-3zM216 360h3v3h-3zM219 360h3v3h-3zM225 360h3v3h-3zM228 360h3v3h-3zM231 360h3v3h-3zM237 360h3v3h-3zM240 360h3v3h-3zM243 360h3v3h-3zM246 360h3v3h-3zM249 360h3v3h-3zM252 360h3v3h-3zM255 360h3v3h-3zM258 360h3v3h-3zM261 360h3v3h-3zM267 360h3v3h-3zM270 360h3v3h-3zM273 360h3v3h-3zM276 360h3v3h-3zM282 360h3v3h-3zM285 360h3v3h-3zM288 360h3v3h-3zM291 360h3v3h-3zM294 360h3v3h-3zM297 360h3v3h-3zM303 360h3v3h-3zM306 360h3v3h-3zM309 360h3v3h-3zM312 360h3v3h-3zM315 360h3v3h-3zM318 360h3v3h-3zM324 360h3v3h-3zM327 360h3v3h-3zM330 360h3v3h-3zM333 360h3v3h-3zM336 360h3v3h-3zM339 360h3v3h-3zM342 360h3v3h-3zM348 360h3v3h-3zM351 360h3v3h-3zM354 360h3v3h-3zM357 360h3v3h-3zM363 360h3v3h-3zM366 360h3v3h-3zM369 360h3v3h-3zM372 360h3v3h-3zM378 360h3v3h-3zM381 360h3v3h-3zM384 360h3v3h-3zM387 360h3v3h-3zM390 360h3v3h-3zM393 360h3v3h-3zM396 360h3v3h-3zM399 360h3v3h-3zM402 360h3v3h-3zM405 360h3v3h-3zM408 360h3v3h-3zM411 360h3v3h-3zM414 360h3v3h-3zM417 360h3v3h-3zM420 360h3v3h-3zM423 360h3v3h-3zM426 360h3v3h-3zM429 360h3v3h-3zM432 360h3v3h-3zM435 360h3v3h-3zM438 360h3v3h-3zM0 363h3v3h-3zM3 363h3v3h-3zM6 363h3v3h-3zM9 363h3v3h-3zM12 363h3v3h-3zM15 363h3v3h-3zM18 363h3v3h-3zM21 363h3v3h-3zM24 363h3v3h-3zM27 363h3v3h-3zM30 363h3v3h-3zM33 363h3v3h-3zM36 363h3v3h-3zM39 363h3v3h-3zM42 363h3v3h-3zM45 363h3v3h-3zM48 363h3v3h-3zM51 363h3v3h-3zM54 363h3v3h-3zM57 363h3v3h-3zM60 363h3v3h-3zM63 363h3v3h-3zM66 363h3v3h-3zM69 363h3v3h-3zM72 363h3v3h-3zM75 363h3v3h-3zM78 363h3v3h-3zM81 363h3v3h-3zM84 363h3v3h-3zM87 363h3v3h-3zM93 363h3v3h-3zM105 363h3v3h-3zM108 363h3v3h-3zM111 363h3v3h-3zM114 363h3v3h-3zM117 363h3v3h-3zM120 363h3v3h-3zM123 363h3v3h-3zM126 363h3v3h-3zM129 363h3v3h-3zM135 363h3v3h-3zM138 363h3v3h-3zM141 363h3v3h-3zM144 363h3v3h-3zM147 363h3v3h-3zM150 363h3v3h-3zM156 363h3v3h-3zM159 363h3v3h-3zM162 363h3v3h-3zM165 363h3v3h-3zM168 363h3v3h-3zM171 363h3v3h-3zM174 363h3v3h-3zM177 363h3v3h-3zM180 363h3v3h-3zM183 363h3v3h-3zM189 363h3v3h-3zM192 363h3v3h-3zM198 363h3v3h-3zM201 363h3v3h-3zM204 363h3v3h-3zM207 363h3v3h-3zM210 363h3v3h-3zM213 363h3v3h-3zM216 363h3v3h-3zM219 363h3v3h-3zM222 363h3v3h-3zM225 363h3v3h-3zM228 363h3v3h-3zM231 363h3v3h-3zM234 363h3v3h-3zM237 363h3v3h-3zM240 363h3v3h-3zM243 363h3v3h-3zM246 363h3v3h-3zM249 363h3v3h-3zM255 363h3v3h-3zM261 363h3v3h-3zM264 363h3v3h-3zM267 363h3v3h-3zM270 363h3v3h-3zM273 363h3v3h-3zM276 363h3v3h-3zM279 363h3v3h-3zM282 363h3v3h-3zM285 363h3v3h-3zM288 363h3v3h-3zM291 363h3v3h-3zM294 363h3v3h-3zM297 363h3v3h-3zM300 363h3v3h-3zM303 363h3v3h-3zM306 363h3v3h-3zM309 363h3v3h-3zM315 363h3v3h-3zM318 363h3v3h-3zM324 363h3v3h-3zM327 363h3v3h-3zM333 363h3v3h-3zM336 363h3v3h-3zM339 363h3v3h-3zM342 363h3v3h-3zM345 363h3v3h-3zM348 363h3v3h-3zM351 363h3v3h-3zM354 363h3v3h-3zM357 363h3v3h-3zM360 363h3v3h-3zM363 363h3v3h-3zM366 363h3v3h-3zM369 363h3v3h-3zM372 363h3v3h-3zM375 363h3v3h-3zM378 363h3v3h-3zM381 363h3v3h-3zM384 363h3v3h-3zM387 363h3v3h-3zM390 363h3v3h-3zM393 363h3v3h-3zM396 363h3v3h-3zM399 363h3v3h-3zM402 363h3v3h-3zM405 363h3v3h-3zM408 363h3v3h-3zM411 363h3v3h-3zM414 363h3v3h-3zM417 363h3v3h-3zM420 363h3v3h-3zM426 363h3v3h-3zM429 363h3v3h-3zM432 363h3v3h-3zM435 363h3v3h-3zM438 363h3v3h-3zM0 366h3v3h-3zM3 366h3v3h-3zM6 366h3v3h-3zM9 366h3v3h-3zM12 366h3v3h-3zM15 366h3v3h-3zM18 366h3v3h-3zM21 366h3v3h-3zM24 366h3v3h-3zM27 366h3v3h-3zM33 366h3v3h-3zM39 366h3v3h-3zM42 366h3v3h-3zM45 366h3v3h-3zM48 366h3v3h-3zM51 366h3v3h-3zM54 366h3v3h-3zM57 366h3v3h-3zM60 366h3v3h-3zM63 366h3v3h-3zM66 366h3v3h-3zM69 366h3v3h-3zM72 366h3v3h-3zM75 366h3v3h-3zM78 366h3v3h-3zM81 366h3v3h-3zM84 366h3v3h-3zM87 366h3v3h-3zM90 366h3v3h-3zM93 366h3v3h-3zM96 366h3v3h-3zM99 366h3v3h-3zM102 366h3v3h-3zM111 366h3v3h-3zM114 366h3v3h-3zM117 366h3v3h-3zM120 366h3v3h-3zM123 366h3v3h-3zM126 366h3v3h-3zM129 366h3v3h-3zM135 366h3v3h-3zM138 366h3v3h-3zM141 366h3v3h-3zM147 366h3v3h-3zM150 366h3v3h-3zM153 366h3v3h-3zM156 366h3v3h-3zM159 366h3v3h-3zM162 366h3v3h-3zM165 366h3v3h-3zM168 366h3v3h-3zM171 366h3v3h-3zM174 366h3v3h-3zM177 366h3v3h-3zM180 366h3v3h-3zM186 366h3v3h-3zM189 366h3v3h-3zM192 366h3v3h-3zM195 366h3v3h-3zM198 366h3v3h-3zM201 366h3v3h-3zM204 366h3v3h-3zM207 366h3v3h-3zM210 366h3v3h-3zM213 366h3v3h-3zM216 366h3v3h-3zM219 366h3v3h-3zM222 366h3v3h-3zM225 366h3v3h-3zM228 366h3v3h-3zM231 366h3v3h-3zM234 366h3v3h-3zM237 366h3v3h-3zM246 366h3v3h-3zM249 366h3v3h-3zM252 366h3v3h-3zM255 366h3v3h-3zM258 366h3v3h-3zM264 366h3v3h-3zM270 366h3v3h-3zM273 366h3v3h-3zM279 366h3v3h-3zM282 366h3v3h-3zM285 366h3v3h-3zM288 366h3v3h-3zM291 366h3v3h-3zM294 366h3v3h-3zM297 366h3v3h-3zM300 366h3v3h-3zM303 366h3v3h-3zM312 366h3v3h-3zM315 366h3v3h-3zM321 366h3v3h-3zM330 366h3v3h-3zM333 366h3v3h-3zM336 366h3v3h-3zM339 366h3v3h-3zM342 366h3v3h-3zM345 366h3v3h-3zM348 366h3v3h-3zM351 366h3v3h-3zM354 366h3v3h-3zM357 366h3v3h-3zM363 366h3v3h-3zM366 366h3v3h-3zM369 366h3v3h-3zM372 366h3v3h-3zM381 366h3v3h-3zM384 366h3v3h-3zM387 366h3v3h-3zM390 366h3v3h-3zM393 366h3v3h-3zM396 366h3v3h-3zM399 366h3v3h-3zM402 366h3v3h-3zM405 366h3v3h-3zM408 366h3v3h-3zM414 366h3v3h-3zM417 366h3v3h-3zM420 366h3v3h-3zM426 366h3v3h-3zM429 366h3v3h-3zM432 366h3v3h-3zM435 366h3v3h-3zM438 366h3v3h-3zM9 369h3v3h-3zM12 369h3v3h-3zM15 369h3v3h-3zM18 369h3v3h-3zM21 369h3v3h-3zM24 369h3v3h-3zM27 369h3v3h-3zM30 369h3v3h-3zM33 369h3v3h-3zM36 369h3v3h-3zM39 369h3v3h-3zM42 369h3v3h-3zM45 369h3v3h-3zM48 369h3v3h-3zM51 369h3v3h-3zM54 369h3v3h-3zM60 369h3v3h-3zM66 369h3v3h-3zM72 369h3v3h-3zM75 369h3v3h-3zM78 369h3v3h-3zM81 369h3v3h-3zM84 369h3v3h-3zM87 369h3v3h-3zM90 369h3v3h-3zM93 369h3v3h-3zM96 369h3v3h-3zM99 369h3v3h-3zM102 369h3v3h-3zM108 369h3v3h-3zM111 369h3v3h-3zM114 369h3v3h-3zM117 369h3v3h-3zM120 369h3v3h-3zM123 369h3v3h-3zM126 369h3v3h-3zM129 369h3v3h-3zM132 369h3v3h-3zM135 369h3v3h-3zM144 369h3v3h-3zM147 369h3v3h-3zM150 369h3v3h-3zM153 369h3v3h-3zM156 369h3v3h-3zM159 369h3v3h-3zM162 369h3v3h-3zM165 369h3v3h-3zM168 369h3v3h-3zM171 369h3v3h-3zM177 369h3v3h-3zM180 369h3v3h-3zM183 369h3v3h-3zM186 369h3v3h-3zM189 369h3v3h-3zM192 369h3v3h-3zM195 369h3v3h-3zM198 369h3v3h-3zM201 369h3v3h-3zM204 369h3v3h-3zM207 369h3v3h-3zM210 369h3v3h-3zM213 369h3v3h-3zM216 369h3v3h-3zM219 369h3v3h-3zM222 369h3v3h-3zM225 369h3v3h-3zM228 369h3v3h-3zM231 369h3v3h-3zM234 369h3v3h-3zM237 369h3v3h-3zM240 369h3v3h-3zM246 369h3v3h-3zM258 369h3v3h-3zM261 369h3v3h-3zM264 369h3v3h-3zM267 369h3v3h-3zM270 369h3v3h-3zM273 369h3v3h-3zM276 369h3v3h-3zM288 369h3v3h-3zM291 369h3v3h-3zM294 369h3v3h-3zM297 369h3v3h-3zM300 369h3v3h-3zM303 369h3v3h-3zM306 369h3v3h-3zM312 369h3v3h-3zM318 369h3v3h-3zM321 369h3v3h-3zM324 369h3v3h-3zM327 369h3v3h-3zM330 369h3v3h-3zM336 369h3v3h-3zM339 369h3v3h-3zM342 369h3v3h-3zM345 369h3v3h-3zM348 369h3v3h-3zM351 369h3v3h-3zM354 369h3v3h-3zM357 369h3v3h-3zM360 369h3v3h-3zM363 369h3v3h-3zM369 369h3v3h-3zM372 369h3v3h-3zM378 369h3v3h-3zM381 369h3v3h-3zM384 369h3v3h-3zM387 369h3v3h-3zM390 369h3v3h-3zM393 369h3v3h-3zM396 369h3v3h-3zM399 369h3v3h-3zM402 369h3v3h-3zM405 369h3v3h-3zM408 369h3v3h-3zM411 369h3v3h-3zM414 369h3v3h-3zM417 369h3v3h-3zM420 369h3v3h-3zM423 369h3v3h-3zM429 369h3v3h-3zM432 369h3v3h-3zM435 369h3v3h-3zM438 369h3v3h-3zM0 372h3v3h-3zM3 372h3v3h-3zM6 372h3v3h-3zM9 372h3v3h-3zM12 372h3v3h-3zM15 372h3v3h-3zM21 372h3v3h-3zM24 372h3v3h-3zM30 372h3v3h-3zM33 372h3v3h-3zM36 372h3v3h-3zM39 372h3v3h-3zM42 372h3v3h-3zM45 372h3v3h-3zM48 372h3v3h-3zM54 372h3v3h-3zM57 372h3v3h-3zM60 372h3v3h-3zM66 372h3v3h-3zM69 372h3v3h-3zM72 372h3v3h-3zM75 372h3v3h-3zM78 372h3v3h-3zM81 372h3v3h-3zM84 372h3v3h-3zM90 372h3v3h-3zM93 372h3v3h-3zM96 372h3v3h-3zM102 372h3v3h-3zM105 372h3v3h-3zM108 372h3v3h-3zM111 372h3v3h-3zM114 372h3v3h-3zM117 372h3v3h-3zM120 372h3v3h-3zM123 372h3v3h-3zM126 372h3v3h-3zM129 372h3v3h-3zM132 372h3v3h-3zM138 372h3v3h-3zM141 372h3v3h-3zM144 372h3v3h-3zM147 372h3v3h-3zM153 372h3v3h-3zM156 372h3v3h-3zM159 372h3v3h-3zM165 372h3v3h-3zM168 372h3v3h-3zM171 372h3v3h-3zM174 372h3v3h-3zM177 372h3v3h-3zM180 372h3v3h-3zM186 372h3v3h-3zM189 372h3v3h-3zM192 372h3v3h-3zM195 372h3v3h-3zM198 372h3v3h-3zM201 372h3v3h-3zM204 372h3v3h-3zM210 372h3v3h-3zM216 372h3v3h-3zM219 372h3v3h-3zM222 372h3v3h-3zM225 372h3v3h-3zM228 372h3v3h-3zM231 372h3v3h-3zM234 372h3v3h-3zM237 372h3v3h-3zM240 372h3v3h-3zM243 372h3v3h-3zM246 372h3v3h-3zM249 372h3v3h-3zM252 372h3v3h-3zM255 372h3v3h-3zM258 372h3v3h-3zM261 372h3v3h-3zM264 372h3v3h-3zM267 372h3v3h-3zM273 372h3v3h-3zM276 372h3v3h-3zM279 372h3v3h-3zM282 372h3v3h-3zM291 372h3v3h-3zM294 372h3v3h-3zM300 372h3v3h-3zM303 372h3v3h-3zM306 372h3v3h-3zM312 372h3v3h-3zM315 372h3v3h-3zM318 372h3v3h-3zM321 372h3v3h-3zM327 372h3v3h-3zM330 372h3v3h-3zM336 372h3v3h-3zM339 372h3v3h-3zM342 372h3v3h-3zM345 372h3v3h-3zM348 372h3v3h-3zM351 372h3v3h-3zM354 372h3v3h-3zM360 372h3v3h-3zM363 372h3v3h-3zM366 372h3v3h-3zM369 372h3v3h-3zM372 372h3v3h-3zM375 372h3v3h-3zM378 372h3v3h-3zM381 372h3v3h-3zM384 372h3v3h-3zM387 372h3v3h-3zM390 372h3v3h-3zM393 372h3v3h-3zM396 372h3v3h-3zM399 372h3v3h-3zM402 372h3v3h-3zM405 372h3v3h-3zM408 372h3v3h-3zM411 372h3v3h-3zM414 372h3v3h-3zM426 372h3v3h-3zM429 372h3v3h-3zM432 372h3v3h-3zM435 372h3v3h-3zM438 372h3v3h-3zM0 375h3v3h-3zM3 375h3v3h-3zM6 375h3v3h-3zM9 375h3v3h-3zM12 375h3v3h-3zM18 375h3v3h-3zM21 375h3v3h-3zM24 375h3v3h-3zM27 375h3v3h-3zM33 375h3v3h-3zM36 375h3v3h-3zM39 375h3v3h-3zM42 375h3v3h-3zM45 375h3v3h-3zM48 375h3v3h-3zM51 375h3v3h-3zM54 375h3v3h-3zM57 375h3v3h-3zM60 375h3v3h-3zM63 375h3v3h-3zM66 375h3v3h-3zM69 375h3v3h-3zM72 375h3v3h-3zM75 375h3v3h-3zM78 375h3v3h-3zM84 375h3v3h-3zM90 375h3v3h-3zM93 375h3v3h-3zM99 375h3v3h-3zM102 375h3v3h-3zM108 375h3v3h-3zM111 375h3v3h-3zM114 375h3v3h-3zM117 375h3v3h-3zM120 375h3v3h-3zM126 375h3v3h-3zM132 375h3v3h-3zM147 375h3v3h-3zM153 375h3v3h-3zM156 375h3v3h-3zM159 375h3v3h-3zM165 375h3v3h-3zM168 375h3v3h-3zM171 375h3v3h-3zM174 375h3v3h-3zM180 375h3v3h-3zM183 375h3v3h-3zM186 375h3v3h-3zM189 375h3v3h-3zM192 375h3v3h-3zM195 375h3v3h-3zM198 375h3v3h-3zM201 375h3v3h-3zM204 375h3v3h-3zM210 375h3v3h-3zM213 375h3v3h-3zM216 375h3v3h-3zM222 375h3v3h-3zM225 375h3v3h-3zM228 375h3v3h-3zM231 375h3v3h-3zM234 375h3v3h-3zM237 375h3v3h-3zM240 375h3v3h-3zM243 375h3v3h-3zM246 375h3v3h-3zM255 375h3v3h-3zM258 375h3v3h-3zM264 375h3v3h-3zM267 375h3v3h-3zM270 375h3v3h-3zM273 375h3v3h-3zM276 375h3v3h-3zM279 375h3v3h-3zM282 375h3v3h-3zM285 375h3v3h-3zM291 375h3v3h-3zM297 375h3v3h-3zM300 375h3v3h-3zM309 375h3v3h-3zM312 375h3v3h-3zM318 375h3v3h-3zM321 375h3v3h-3zM330 375h3v3h-3zM333 375h3v3h-3zM336 375h3v3h-3zM339 375h3v3h-3zM342 375h3v3h-3zM345 375h3v3h-3zM348 375h3v3h-3zM351 375h3v3h-3zM354 375h3v3h-3zM357 375h3v3h-3zM360 375h3v3h-3zM363 375h3v3h-3zM366 375h3v3h-3zM369 375h3v3h-3zM372 375h3v3h-3zM375 375h3v3h-3zM378 375h3v3h-3zM381 375h3v3h-3zM384 375h3v3h-3zM387 375h3v3h-3zM390 375h3v3h-3zM393 375h3v3h-3zM396 375h3v3h-3zM399 375h3v3h-3zM402 375h3v3h-3zM405 375h3v3h-3zM408 375h3v3h-3zM414 375h3v3h-3zM417 375h3v3h-3zM420 375h3v3h-3zM426 375h3v3h-3zM429 375h3v3h-3zM432 375h3v3h-3zM435 375h3v3h-3zM438 375h3v3h-3zM6 378h3v3h-3zM9 378h3v3h-3zM12 378h3v3h-3zM15 378h3v3h-3zM18 378h3v3h-3zM21 378h3v3h-3zM24 378h3v3h-3zM27 378h3v3h-3zM30 378h3v3h-3zM33 378h3v3h-3zM39 378h3v3h-3zM45 378h3v3h-3zM48 378h3v3h-3zM51 378h3v3h-3zM54 378h3v3h-3zM57 378h3v3h-3zM66 378h3v3h-3zM72 378h3v3h-3zM75 378h3v3h-3zM78 378h3v3h-3zM81 378h3v3h-3zM84 378h3v3h-3zM87 378h3v3h-3zM90 378h3v3h-3zM93 378h3v3h-3zM96 378h3v3h-3zM105 378h3v3h-3zM111 378h3v3h-3zM114 378h3v3h-3zM123 378h3v3h-3zM126 378h3v3h-3zM129 378h3v3h-3zM132 378h3v3h-3zM135 378h3v3h-3zM138 378h3v3h-3zM153 378h3v3h-3zM156 378h3v3h-3zM159 378h3v3h-3zM162 378h3v3h-3zM165 378h3v3h-3zM168 378h3v3h-3zM174 378h3v3h-3zM177 378h3v3h-3zM180 378h3v3h-3zM183 378h3v3h-3zM189 378h3v3h-3zM192 378h3v3h-3zM195 378h3v3h-3zM198 378h3v3h-3zM201 378h3v3h-3zM204 378h3v3h-3zM207 378h3v3h-3zM210 378h3v3h-3zM213 378h3v3h-3zM216 378h3v3h-3zM219 378h3v3h-3zM222 378h3v3h-3zM225 378h3v3h-3zM228 378h3v3h-3zM231 378h3v3h-3zM234 378h3v3h-3zM243 378h3v3h-3zM249 378h3v3h-3zM252 378h3v3h-3zM258 378h3v3h-3zM261 378h3v3h-3zM264 378h3v3h-3zM267 378h3v3h-3zM270 378h3v3h-3zM273 378h3v3h-3zM276 378h3v3h-3zM279 378h3v3h-3zM282 378h3v3h-3zM285 378h3v3h-3zM288 378h3v3h-3zM291 378h3v3h-3zM300 378h3v3h-3zM309 378h3v3h-3zM312 378h3v3h-3zM324 378h3v3h-3zM327 378h3v3h-3zM330 378h3v3h-3zM333 378h3v3h-3zM336 378h3v3h-3zM342 378h3v3h-3zM348 378h3v3h-3zM351 378h3v3h-3zM354 378h3v3h-3zM357 378h3v3h-3zM360 378h3v3h-3zM363 378h3v3h-3zM366 378h3v3h-3zM369 378h3v3h-3zM372 378h3v3h-3zM375 378h3v3h-3zM378 378h3v3h-3zM381 378h3v3h-3zM384 378h3v3h-3zM387 378h3v3h-3zM390 378h3v3h-3zM393 378h3v3h-3zM396 378h3v3h-3zM399 378h3v3h-3zM402 378h3v3h-3zM405 378h3v3h-3zM408 378h3v3h-3zM417 378h3v3h-3zM420 378h3v3h-3zM423 378h3v3h-3zM426 378h3v3h-3zM429 378h3v3h-3zM432 378h3v3h-3zM438 378h3v3h-3zM0 381h3v3h-3zM3 381h3v3h-3zM6 381h3v3h-3zM15 381h3v3h-3zM18 381h3v3h-3zM21 381h3v3h-3zM24 381h3v3h-3zM27 381h3v3h-3zM30 381h3v3h-3zM36 381h3v3h-3zM39 381h3v3h-3zM42 381h3v3h-3zM48 381h3v3h-3zM51 381h3v3h-3zM54 381h3v3h-3zM57 381h3v3h-3zM63 381h3v3h-3zM66 381h3v3h-3zM69 381h3v3h-3zM75 381h3v3h-3zM78 381h3v3h-3zM87 381h3v3h-3zM93 381h3v3h-3zM99 381h3v3h-3zM102 381h3v3h-3zM105 381h3v3h-3zM108 381h3v3h-3zM114 381h3v3h-3zM117 381h3v3h-3zM120 381h3v3h-3zM123 381h3v3h-3zM129 381h3v3h-3zM132 381h3v3h-3zM135 381h3v3h-3zM138 381h3v3h-3zM141 381h3v3h-3zM144 381h3v3h-3zM156 381h3v3h-3zM159 381h3v3h-3zM162 381h3v3h-3zM165 381h3v3h-3zM171 381h3v3h-3zM174 381h3v3h-3zM177 381h3v3h-3zM195 381h3v3h-3zM198 381h3v3h-3zM201 381h3v3h-3zM204 381h3v3h-3zM207 381h3v3h-3zM210 381h3v3h-3zM213 381h3v3h-3zM216 381h3v3h-3zM219 381h3v3h-3zM222 381h3v3h-3zM225 381h3v3h-3zM231 381h3v3h-3zM234 381h3v3h-3zM237 381h3v3h-3zM240 381h3v3h-3zM246 381h3v3h-3zM249 381h3v3h-3zM252 381h3v3h-3zM255 381h3v3h-3zM258 381h3v3h-3zM261 381h3v3h-3zM264 381h3v3h-3zM273 381h3v3h-3zM282 381h3v3h-3zM288 381h3v3h-3zM294 381h3v3h-3zM297 381h3v3h-3zM300 381h3v3h-3zM303 381h3v3h-3zM306 381h3v3h-3zM309 381h3v3h-3zM315 381h3v3h-3zM321 381h3v3h-3zM324 381h3v3h-3zM333 381h3v3h-3zM336 381h3v3h-3zM339 381h3v3h-3zM342 381h3v3h-3zM345 381h3v3h-3zM348 381h3v3h-3zM351 381h3v3h-3zM360 381h3v3h-3zM363 381h3v3h-3zM366 381h3v3h-3zM369 381h3v3h-3zM372 381h3v3h-3zM375 381h3v3h-3zM378 381h3v3h-3zM381 381h3v3h-3zM384 381h3v3h-3zM387 381h3v3h-3zM390 381h3v3h-3zM393 381h3v3h-3zM399 381h3v3h-3zM402 381h3v3h-3zM405 381h3v3h-3zM408 381h3v3h-3zM411 381h3v3h-3zM414 381h3v3h-3zM417 381h3v3h-3zM420 381h3v3h-3zM426 381h3v3h-3zM429 381h3v3h-3zM432 381h3v3h-3zM435 381h3v3h-3zM438 381h3v3h-3zM0 384h3v3h-3zM3 384h3v3h-3zM6 384h3v3h-3zM9 384h3v3h-3zM12 384h3v3h-3zM15 384h3v3h-3zM18 384h3v3h-3zM21 384h3v3h-3zM27 384h3v3h-3zM30 384h3v3h-3zM33 384h3v3h-3zM36 384h3v3h-3zM42 384h3v3h-3zM45 384h3v3h-3zM48 384h3v3h-3zM57 384h3v3h-3zM63 384h3v3h-3zM66 384h3v3h-3zM69 384h3v3h-3zM72 384h3v3h-3zM75 384h3v3h-3zM78 384h3v3h-3zM81 384h3v3h-3zM84 384h3v3h-3zM90 384h3v3h-3zM96 384h3v3h-3zM102 384h3v3h-3zM105 384h3v3h-3zM111 384h3v3h-3zM117 384h3v3h-3zM123 384h3v3h-3zM126 384h3v3h-3zM129 384h3v3h-3zM132 384h3v3h-3zM135 384h3v3h-3zM138 384h3v3h-3zM141 384h3v3h-3zM144 384h3v3h-3zM147 384h3v3h-3zM153 384h3v3h-3zM156 384h3v3h-3zM162 384h3v3h-3zM165 384h3v3h-3zM171 384h3v3h-3zM174 384h3v3h-3zM186 384h3v3h-3zM189 384h3v3h-3zM192 384h3v3h-3zM201 384h3v3h-3zM207 384h3v3h-3zM210 384h3v3h-3zM213 384h3v3h-3zM216 384h3v3h-3zM219 384h3v3h-3zM222 384h3v3h-3zM225 384h3v3h-3zM228 384h3v3h-3zM234 384h3v3h-3zM237 384h3v3h-3zM243 384h3v3h-3zM246 384h3v3h-3zM252 384h3v3h-3zM255 384h3v3h-3zM258 384h3v3h-3zM264 384h3v3h-3zM267 384h3v3h-3zM270 384h3v3h-3zM273 384h3v3h-3zM276 384h3v3h-3zM279 384h3v3h-3zM285 384h3v3h-3zM294 384h3v3h-3zM297 384h3v3h-3zM303 384h3v3h-3zM306 384h3v3h-3zM309 384h3v3h-3zM315 384h3v3h-3zM318 384h3v3h-3zM321 384h3v3h-3zM324 384h3v3h-3zM327 384h3v3h-3zM330 384h3v3h-3zM336 384h3v3h-3zM339 384h3v3h-3zM342 384h3v3h-3zM345 384h3v3h-3zM351 384h3v3h-3zM354 384h3v3h-3zM360 384h3v3h-3zM366 384h3v3h-3zM372 384h3v3h-3zM375 384h3v3h-3zM381 384h3v3h-3zM384 384h3v3h-3zM387 384h3v3h-3zM390 384h3v3h-3zM393 384h3v3h-3zM396 384h3v3h-3zM399 384h3v3h-3zM402 384h3v3h-3zM405 384h3v3h-3zM408 384h3v3h-3zM411 384h3v3h-3zM414 384h3v3h-3zM432 384h3v3h-3zM0 387h3v3h-3zM3 387h3v3h-3zM6 387h3v3h-3zM9 387h3v3h-3zM12 387h3v3h-3zM15 387h3v3h-3zM18 387h3v3h-3zM21 387h3v3h-3zM24 387h3v3h-3zM33 387h3v3h-3zM39 387h3v3h-3zM42 387h3v3h-3zM45 387h3v3h-3zM48 387h3v3h-3zM51 387h3v3h-3zM63 387h3v3h-3zM69 387h3v3h-3zM75 387h3v3h-3zM81 387h3v3h-3zM84 387h3v3h-3zM87 387h3v3h-3zM90 387h3v3h-3zM93 387h3v3h-3zM96 387h3v3h-3zM99 387h3v3h-3zM102 387h3v3h-3zM105 387h3v3h-3zM108 387h3v3h-3zM111 387h3v3h-3zM117 387h3v3h-3zM120 387h3v3h-3zM123 387h3v3h-3zM126 387h3v3h-3zM129 387h3v3h-3zM132 387h3v3h-3zM135 387h3v3h-3zM138 387h3v3h-3zM141 387h3v3h-3zM144 387h3v3h-3zM147 387h3v3h-3zM153 387h3v3h-3zM156 387h3v3h-3zM168 387h3v3h-3zM171 387h3v3h-3zM177 387h3v3h-3zM180 387h3v3h-3zM186 387h3v3h-3zM189 387h3v3h-3zM192 387h3v3h-3zM201 387h3v3h-3zM204 387h3v3h-3zM207 387h3v3h-3zM210 387h3v3h-3zM213 387h3v3h-3zM216 387h3v3h-3zM219 387h3v3h-3zM222 387h3v3h-3zM225 387h3v3h-3zM228 387h3v3h-3zM240 387h3v3h-3zM243 387h3v3h-3zM246 387h3v3h-3zM252 387h3v3h-3zM255 387h3v3h-3zM258 387h3v3h-3zM267 387h3v3h-3zM270 387h3v3h-3zM273 387h3v3h-3zM279 387h3v3h-3zM282 387h3v3h-3zM285 387h3v3h-3zM288 387h3v3h-3zM291 387h3v3h-3zM297 387h3v3h-3zM303 387h3v3h-3zM306 387h3v3h-3zM309 387h3v3h-3zM312 387h3v3h-3zM315 387h3v3h-3zM318 387h3v3h-3zM321 387h3v3h-3zM330 387h3v3h-3zM333 387h3v3h-3zM339 387h3v3h-3zM342 387h3v3h-3zM351 387h3v3h-3zM354 387h3v3h-3zM357 387h3v3h-3zM360 387h3v3h-3zM366 387h3v3h-3zM369 387h3v3h-3zM372 387h3v3h-3zM375 387h3v3h-3zM381 387h3v3h-3zM384 387h3v3h-3zM387 387h3v3h-3zM390 387h3v3h-3zM393 387h3v3h-3zM399 387h3v3h-3zM402 387h3v3h-3zM408 387h3v3h-3zM411 387h3v3h-3zM414 387h3v3h-3zM417 387h3v3h-3zM420 387h3v3h-3zM426 387h3v3h-3zM429 387h3v3h-3zM432 387h3v3h-3zM0 390h3v3h-3zM6 390h3v3h-3zM9 390h3v3h-3zM12 390h3v3h-3zM15 390h3v3h-3zM18 390h3v3h-3zM21 390h3v3h-3zM24 390h3v3h-3zM33 390h3v3h-3zM39 390h3v3h-3zM45 390h3v3h-3zM48 390h3v3h-3zM51 390h3v3h-3zM60 390h3v3h-3zM63 390h3v3h-3zM66 390h3v3h-3zM69 390h3v3h-3zM72 390h3v3h-3zM78 390h3v3h-3zM84 390h3v3h-3zM96 390h3v3h-3zM99 390h3v3h-3zM102 390h3v3h-3zM105 390h3v3h-3zM108 390h3v3h-3zM111 390h3v3h-3zM114 390h3v3h-3zM117 390h3v3h-3zM120 390h3v3h-3zM123 390h3v3h-3zM129 390h3v3h-3zM132 390h3v3h-3zM135 390h3v3h-3zM156 390h3v3h-3zM159 390h3v3h-3zM162 390h3v3h-3zM165 390h3v3h-3zM168 390h3v3h-3zM171 390h3v3h-3zM180 390h3v3h-3zM183 390h3v3h-3zM186 390h3v3h-3zM189 390h3v3h-3zM192 390h3v3h-3zM195 390h3v3h-3zM198 390h3v3h-3zM201 390h3v3h-3zM204 390h3v3h-3zM210 390h3v3h-3zM213 390h3v3h-3zM216 390h3v3h-3zM225 390h3v3h-3zM228 390h3v3h-3zM231 390h3v3h-3zM234 390h3v3h-3zM237 390h3v3h-3zM240 390h3v3h-3zM243 390h3v3h-3zM246 390h3v3h-3zM255 390h3v3h-3zM261 390h3v3h-3zM264 390h3v3h-3zM267 390h3v3h-3zM270 390h3v3h-3zM273 390h3v3h-3zM282 390h3v3h-3zM285 390h3v3h-3zM297 390h3v3h-3zM300 390h3v3h-3zM303 390h3v3h-3zM306 390h3v3h-3zM312 390h3v3h-3zM318 390h3v3h-3zM321 390h3v3h-3zM324 390h3v3h-3zM330 390h3v3h-3zM345 390h3v3h-3zM348 390h3v3h-3zM351 390h3v3h-3zM354 390h3v3h-3zM357 390h3v3h-3zM363 390h3v3h-3zM372 390h3v3h-3zM378 390h3v3h-3zM384 390h3v3h-3zM393 390h3v3h-3zM396 390h3v3h-3zM402 390h3v3h-3zM405 390h3v3h-3zM408 390h3v3h-3zM411 390h3v3h-3zM417 390h3v3h-3zM420 390h3v3h-3zM423 390h3v3h-3zM426 390h3v3h-3zM429 390h3v3h-3zM432 390h3v3h-3zM438 390h3v3h-3zM3 393h3v3h-3zM6 393h3v3h-3zM9 393h3v3h-3zM12 393h3v3h-3zM15 393h3v3h-3zM18 393h3v3h-3zM21 393h3v3h-3zM24 393h3v3h-3zM27 393h3v3h-3zM30 393h3v3h-3zM33 393h3v3h-3zM45 393h3v3h-3zM48 393h3v3h-3zM51 393h3v3h-3zM57 393h3v3h-3zM63 393h3v3h-3zM66 393h3v3h-3zM69 393h3v3h-3zM72 393h3v3h-3zM78 393h3v3h-3zM87 393h3v3h-3zM90 393h3v3h-3zM93 393h3v3h-3zM96 393h3v3h-3zM99 393h3v3h-3zM102 393h3v3h-3zM108 393h3v3h-3zM111 393h3v3h-3zM114 393h3v3h-3zM123 393h3v3h-3zM126 393h3v3h-3zM129 393h3v3h-3zM135 393h3v3h-3zM141 393h3v3h-3zM144 393h3v3h-3zM147 393h3v3h-3zM153 393h3v3h-3zM156 393h3v3h-3zM159 393h3v3h-3zM165 393h3v3h-3zM168 393h3v3h-3zM174 393h3v3h-3zM177 393h3v3h-3zM183 393h3v3h-3zM192 393h3v3h-3zM195 393h3v3h-3zM198 393h3v3h-3zM201 393h3v3h-3zM210 393h3v3h-3zM216 393h3v3h-3zM222 393h3v3h-3zM228 393h3v3h-3zM231 393h3v3h-3zM237 393h3v3h-3zM240 393h3v3h-3zM243 393h3v3h-3zM246 393h3v3h-3zM252 393h3v3h-3zM255 393h3v3h-3zM261 393h3v3h-3zM264 393h3v3h-3zM273 393h3v3h-3zM276 393h3v3h-3zM282 393h3v3h-3zM285 393h3v3h-3zM288 393h3v3h-3zM300 393h3v3h-3zM303 393h3v3h-3zM306 393h3v3h-3zM309 393h3v3h-3zM315 393h3v3h-3zM318 393h3v3h-3zM321 393h3v3h-3zM324 393h3v3h-3zM336 393h3v3h-3zM339 393h3v3h-3zM345 393h3v3h-3zM351 393h3v3h-3zM354 393h3v3h-3zM372 393h3v3h-3zM375 393h3v3h-3zM378 393h3v3h-3zM381 393h3v3h-3zM384 393h3v3h-3zM387 393h3v3h-3zM390 393h3v3h-3zM396 393h3v3h-3zM405 393h3v3h-3zM408 393h3v3h-3zM411 393h3v3h-3zM417 393h3v3h-3zM420 393h3v3h-3zM423 393h3v3h-3zM426 393h3v3h-3zM432 393h3v3h-3zM435 393h3v3h-3zM438 393h3v3h-3zM3 396h3v3h-3zM6 396h3v3h-3zM9 396h3v3h-3zM18 396h3v3h-3zM21 396h3v3h-3zM24 396h3v3h-3zM30 396h3v3h-3zM33 396h3v3h-3zM36 396h3v3h-3zM39 396h3v3h-3zM42 396h3v3h-3zM45 396h3v3h-3zM48 396h3v3h-3zM51 396h3v3h-3zM54 396h3v3h-3zM60 396h3v3h-3zM66 396h3v3h-3zM69 396h3v3h-3zM72 396h3v3h-3zM78 396h3v3h-3zM81 396h3v3h-3zM84 396h3v3h-3zM87 396h3v3h-3zM90 396h3v3h-3zM93 396h3v3h-3zM105 396h3v3h-3zM117 396h3v3h-3zM120 396h3v3h-3zM123 396h3v3h-3zM132 396h3v3h-3zM144 396h3v3h-3zM153 396h3v3h-3zM159 396h3v3h-3zM162 396h3v3h-3zM165 396h3v3h-3zM168 396h3v3h-3zM171 396h3v3h-3zM174 396h3v3h-3zM186 396h3v3h-3zM189 396h3v3h-3zM192 396h3v3h-3zM195 396h3v3h-3zM198 396h3v3h-3zM204 396h3v3h-3zM207 396h3v3h-3zM210 396h3v3h-3zM213 396h3v3h-3zM216 396h3v3h-3zM222 396h3v3h-3zM231 396h3v3h-3zM234 396h3v3h-3zM237 396h3v3h-3zM243 396h3v3h-3zM249 396h3v3h-3zM258 396h3v3h-3zM261 396h3v3h-3zM264 396h3v3h-3zM267 396h3v3h-3zM270 396h3v3h-3zM276 396h3v3h-3zM279 396h3v3h-3zM288 396h3v3h-3zM291 396h3v3h-3zM294 396h3v3h-3zM303 396h3v3h-3zM315 396h3v3h-3zM318 396h3v3h-3zM321 396h3v3h-3zM324 396h3v3h-3zM339 396h3v3h-3zM342 396h3v3h-3zM351 396h3v3h-3zM354 396h3v3h-3zM357 396h3v3h-3zM360 396h3v3h-3zM363 396h3v3h-3zM366 396h3v3h-3zM378 396h3v3h-3zM381 396h3v3h-3zM384 396h3v3h-3zM387 396h3v3h-3zM390 396h3v3h-3zM393 396h3v3h-3zM399 396h3v3h-3zM402 396h3v3h-3zM405 396h3v3h-3zM414 396h3v3h-3zM417 396h3v3h-3zM423 396h3v3h-3zM426 396h3v3h-3zM432 396h3v3h-3zM438 396h3v3h-3zM0 399h3v3h-3zM6 399h3v3h-3zM9 399h3v3h-3zM18 399h3v3h-3zM27 399h3v3h-3zM30 399h3v3h-3zM33 399h3v3h-3zM42 399h3v3h-3zM45 399h3v3h-3zM54 399h3v3h-3zM63 399h3v3h-3zM69 399h3v3h-3zM72 399h3v3h-3zM75 399h3v3h-3zM81 399h3v3h-3zM87 399h3v3h-3zM90 399h3v3h-3zM96 399h3v3h-3zM102 399h3v3h-3zM105 399h3v3h-3zM111 399h3v3h-3zM120 399h3v3h-3zM129 399h3v3h-3zM132 399h3v3h-3zM135 399h3v3h-3zM138 399h3v3h-3zM141 399h3v3h-3zM144 399h3v3h-3zM147 399h3v3h-3zM150 399h3v3h-3zM153 399h3v3h-3zM156 399h3v3h-3zM159 399h3v3h-3zM165 399h3v3h-3zM168 399h3v3h-3zM171 399h3v3h-3zM174 399h3v3h-3zM180 399h3v3h-3zM183 399h3v3h-3zM189 399h3v3h-3zM195 399h3v3h-3zM201 399h3v3h-3zM204 399h3v3h-3zM207 399h3v3h-3zM210 399h3v3h-3zM213 399h3v3h-3zM216 399h3v3h-3zM219 399h3v3h-3zM243 399h3v3h-3zM249 399h3v3h-3zM255 399h3v3h-3zM264 399h3v3h-3zM270 399h3v3h-3zM276 399h3v3h-3zM285 399h3v3h-3zM288 399h3v3h-3zM291 399h3v3h-3zM294 399h3v3h-3zM303 399h3v3h-3zM306 399h3v3h-3zM309 399h3v3h-3zM315 399h3v3h-3zM318 399h3v3h-3zM321 399h3v3h-3zM336 399h3v3h-3zM339 399h3v3h-3zM342 399h3v3h-3zM345 399h3v3h-3zM354 399h3v3h-3zM357 399h3v3h-3zM360 399h3v3h-3zM366 399h3v3h-3zM369 399h3v3h-3zM372 399h3v3h-3zM375 399h3v3h-3zM378 399h3v3h-3zM381 399h3v3h-3zM384 399h3v3h-3zM387 399h3v3h-3zM393 399h3v3h-3zM396 399h3v3h-3zM399 399h3v3h-3zM405 399h3v3h-3zM411 399h3v3h-3zM414 399h3v3h-3zM423 399h3v3h-3zM12 402h3v3h-3zM15 402h3v3h-3zM18 402h3v3h-3zM24 402h3v3h-3zM27 402h3v3h-3zM30 402h3v3h-3zM42 402h3v3h-3zM45 402h3v3h-3zM48 402h3v3h-3zM54 402h3v3h-3zM57 402h3v3h-3zM60 402h3v3h-3zM66 402h3v3h-3zM69 402h3v3h-3zM72 402h3v3h-3zM75 402h3v3h-3zM78 402h3v3h-3zM84 402h3v3h-3zM87 402h3v3h-3zM93 402h3v3h-3zM99 402h3v3h-3zM111 402h3v3h-3zM117 402h3v3h-3zM126 402h3v3h-3zM129 402h3v3h-3zM135 402h3v3h-3zM144 402h3v3h-3zM147 402h3v3h-3zM153 402h3v3h-3zM156 402h3v3h-3zM159 402h3v3h-3zM162 402h3v3h-3zM165 402h3v3h-3zM171 402h3v3h-3zM174 402h3v3h-3zM189 402h3v3h-3zM192 402h3v3h-3zM195 402h3v3h-3zM201 402h3v3h-3zM204 402h3v3h-3zM210 402h3v3h-3zM213 402h3v3h-3zM216 402h3v3h-3zM219 402h3v3h-3zM231 402h3v3h-3zM234 402h3v3h-3zM237 402h3v3h-3zM240 402h3v3h-3zM246 402h3v3h-3zM252 402h3v3h-3zM255 402h3v3h-3zM258 402h3v3h-3zM264 402h3v3h-3zM270 402h3v3h-3zM276 402h3v3h-3zM279 402h3v3h-3zM285 402h3v3h-3zM306 402h3v3h-3zM309 402h3v3h-3zM312 402h3v3h-3zM318 402h3v3h-3zM321 402h3v3h-3zM324 402h3v3h-3zM327 402h3v3h-3zM330 402h3v3h-3zM333 402h3v3h-3zM336 402h3v3h-3zM339 402h3v3h-3zM342 402h3v3h-3zM345 402h3v3h-3zM348 402h3v3h-3zM369 402h3v3h-3zM372 402h3v3h-3zM384 402h3v3h-3zM393 402h3v3h-3zM399 402h3v3h-3zM402 402h3v3h-3zM405 402h3v3h-3zM414 402h3v3h-3zM417 402h3v3h-3zM426 402h3v3h-3zM429 402h3v3h-3zM435 402h3v3h-3zM0 405h3v3h-3zM3 405h3v3h-3zM12 405h3v3h-3zM15 405h3v3h-3zM18 405h3v3h-3zM21 405h3v3h-3zM24 405h3v3h-3zM27 405h3v3h-3zM30 405h3v3h-3zM39 405h3v3h-3zM48 405h3v3h-3zM51 405h3v3h-3zM54 405h3v3h-3zM60 405h3v3h-3zM63 405h3v3h-3zM75 405h3v3h-3zM78 405h3v3h-3zM81 405h3v3h-3zM84 405h3v3h-3zM87 405h3v3h-3zM96 405h3v3h-3zM99 405h3v3h-3zM102 405h3v3h-3zM108 405h3v3h-3zM111 405h3v3h-3zM114 405h3v3h-3zM117 405h3v3h-3zM120 405h3v3h-3zM126 405h3v3h-3zM129 405h3v3h-3zM132 405h3v3h-3zM138 405h3v3h-3zM150 405h3v3h-3zM153 405h3v3h-3zM159 405h3v3h-3zM168 405h3v3h-3zM174 405h3v3h-3zM180 405h3v3h-3zM183 405h3v3h-3zM186 405h3v3h-3zM198 405h3v3h-3zM201 405h3v3h-3zM213 405h3v3h-3zM219 405h3v3h-3zM222 405h3v3h-3zM225 405h3v3h-3zM228 405h3v3h-3zM237 405h3v3h-3zM240 405h3v3h-3zM246 405h3v3h-3zM255 405h3v3h-3zM261 405h3v3h-3zM267 405h3v3h-3zM270 405h3v3h-3zM273 405h3v3h-3zM276 405h3v3h-3zM279 405h3v3h-3zM282 405h3v3h-3zM285 405h3v3h-3zM300 405h3v3h-3zM303 405h3v3h-3zM306 405h3v3h-3zM309 405h3v3h-3zM312 405h3v3h-3zM315 405h3v3h-3zM318 405h3v3h-3zM321 405h3v3h-3zM324 405h3v3h-3zM327 405h3v3h-3zM330 405h3v3h-3zM333 405h3v3h-3zM336 405h3v3h-3zM339 405h3v3h-3zM342 405h3v3h-3zM345 405h3v3h-3zM348 405h3v3h-3zM354 405h3v3h-3zM360 405h3v3h-3zM363 405h3v3h-3zM366 405h3v3h-3zM369 405h3v3h-3zM372 405h3v3h-3zM378 405h3v3h-3zM390 405h3v3h-3zM414 405h3v3h-3zM420 405h3v3h-3zM426 405h3v3h-3zM435 405h3v3h-3zM3 408h3v3h-3zM12 408h3v3h-3zM18 408h3v3h-3zM21 408h3v3h-3zM24 408h3v3h-3zM33 408h3v3h-3zM36 408h3v3h-3zM39 408h3v3h-3zM42 408h3v3h-3zM48 408h3v3h-3zM66 408h3v3h-3zM72 408h3v3h-3zM75 408h3v3h-3zM78 408h3v3h-3zM81 408h3v3h-3zM84 408h3v3h-3zM90 408h3v3h-3zM96 408h3v3h-3zM99 408h3v3h-3zM117 408h3v3h-3zM135 408h3v3h-3zM138 408h3v3h-3zM141 408h3v3h-3zM144 408h3v3h-3zM156 408h3v3h-3zM159 408h3v3h-3zM162 408h3v3h-3zM180 408h3v3h-3zM183 408h3v3h-3zM186 408h3v3h-3zM189 408h3v3h-3zM192 408h3v3h-3zM195 408h3v3h-3zM207 408h3v3h-3zM210 408h3v3h-3zM219 408h3v3h-3zM222 408h3v3h-3zM225 408h3v3h-3zM231 408h3v3h-3zM237 408h3v3h-3zM240 408h3v3h-3zM243 408h3v3h-3zM246 408h3v3h-3zM249 408h3v3h-3zM252 408h3v3h-3zM261 408h3v3h-3zM273 408h3v3h-3zM288 408h3v3h-3zM291 408h3v3h-3zM294 408h3v3h-3zM297 408h3v3h-3zM303 408h3v3h-3zM306 408h3v3h-3zM315 408h3v3h-3zM318 408h3v3h-3zM330 408h3v3h-3zM339 408h3v3h-3zM345 408h3v3h-3zM357 408h3v3h-3zM363 408h3v3h-3zM366 408h3v3h-3zM369 408h3v3h-3zM375 408h3v3h-3zM384 408h3v3h-3zM390 408h3v3h-3zM393 408h3v3h-3zM396 408h3v3h-3zM399 408h3v3h-3zM414 408h3v3h-3zM417 408h3v3h-3zM423 408h3v3h-3zM429 408h3v3h-3zM432 408h3v3h-3zM6 411h3v3h-3zM9 411h3v3h-3zM21 411h3v3h-3zM24 411h3v3h-3zM27 411h3v3h-3zM30 411h3v3h-3zM33 411h3v3h-3zM36 411h3v3h-3zM42 411h3v3h-3zM45 411h3v3h-3zM48 411h3v3h-3zM51 411h3v3h-3zM57 411h3v3h-3zM63 411h3v3h-3zM75 411h3v3h-3zM87 411h3v3h-3zM93 411h3v3h-3zM96 411h3v3h-3zM105 411h3v3h-3zM114 411h3v3h-3zM123 411h3v3h-3zM129 411h3v3h-3zM132 411h3v3h-3zM135 411h3v3h-3zM138 411h3v3h-3zM141 411h3v3h-3zM144 411h3v3h-3zM156 411h3v3h-3zM162 411h3v3h-3zM165 411h3v3h-3zM168 411h3v3h-3zM180 411h3v3h-3zM186 411h3v3h-3zM189 411h3v3h-3zM195 411h3v3h-3zM201 411h3v3h-3zM210 411h3v3h-3zM213 411h3v3h-3zM216 411h3v3h-3zM219 411h3v3h-3zM222 411h3v3h-3zM225 411h3v3h-3zM228 411h3v3h-3zM234 411h3v3h-3zM240 411h3v3h-3zM243 411h3v3h-3zM258 411h3v3h-3zM261 411h3v3h-3zM273 411h3v3h-3zM276 411h3v3h-3zM279 411h3v3h-3zM282 411h3v3h-3zM288 411h3v3h-3zM297 411h3v3h-3zM300 411h3v3h-3zM303 411h3v3h-3zM306 411h3v3h-3zM315 411h3v3h-3zM324 411h3v3h-3zM327 411h3v3h-3zM330 411h3v3h-3zM333 411h3v3h-3zM336 411h3v3h-3zM345 411h3v3h-3zM348 411h3v3h-3zM354 411h3v3h-3zM360 411h3v3h-3zM366 411h3v3h-3zM372 411h3v3h-3zM375 411h3v3h-3zM378 411h3v3h-3zM387 411h3v3h-3zM393 411h3v3h-3zM399 411h3v3h-3zM402 411h3v3h-3zM417 411h3v3h-3zM420 411h3v3h-3zM438 411h3v3h-3zM0 414h3v3h-3zM3 414h3v3h-3zM9 414h3v3h-3zM12 414h3v3h-3zM15 414h3v3h-3zM21 414h3v3h-3zM24 414h3v3h-3zM30 414h3v3h-3zM33 414h3v3h-3zM39 414h3v3h-3zM48 414h3v3h-3zM60 414h3v3h-3zM66 414h3v3h-3zM69 414h3v3h-3zM72 414h3v3h-3zM78 414h3v3h-3zM81 414h3v3h-3zM87 414h3v3h-3zM90 414h3v3h-3zM93 414h3v3h-3zM96 414h3v3h-3zM99 414h3v3h-3zM102 414h3v3h-3zM120 414h3v3h-3zM132 414h3v3h-3zM141 414h3v3h-3zM144 414h3v3h-3zM147 414h3v3h-3zM156 414h3v3h-3zM159 414h3v3h-3zM165 414h3v3h-3zM168 414h3v3h-3zM171 414h3v3h-3zM177 414h3v3h-3zM180 414h3v3h-3zM189 414h3v3h-3zM204 414h3v3h-3zM207 414h3v3h-3zM210 414h3v3h-3zM213 414h3v3h-3zM219 414h3v3h-3zM222 414h3v3h-3zM225 414h3v3h-3zM228 414h3v3h-3zM234 414h3v3h-3zM243 414h3v3h-3zM246 414h3v3h-3zM261 414h3v3h-3zM264 414h3v3h-3zM267 414h3v3h-3zM273 414h3v3h-3zM276 414h3v3h-3zM279 414h3v3h-3zM285 414h3v3h-3zM288 414h3v3h-3zM303 414h3v3h-3zM309 414h3v3h-3zM318 414h3v3h-3zM321 414h3v3h-3zM324 414h3v3h-3zM327 414h3v3h-3zM333 414h3v3h-3zM336 414h3v3h-3zM342 414h3v3h-3zM348 414h3v3h-3zM351 414h3v3h-3zM360 414h3v3h-3zM363 414h3v3h-3zM366 414h3v3h-3zM372 414h3v3h-3zM381 414h3v3h-3zM384 414h3v3h-3zM387 414h3v3h-3zM393 414h3v3h-3zM396 414h3v3h-3zM408 414h3v3h-3zM411 414h3v3h-3zM414 414h3v3h-3zM429 414h3v3h-3zM432 414h3v3h-3zM435 414h3v3h-3zM438 414h3v3h-3zM3 417h3v3h-3zM6 417h3v3h-3zM9 417h3v3h-3zM12 417h3v3h-3zM15 417h3v3h-3zM18 417h3v3h-3zM21 417h3v3h-3zM24 417h3v3h-3zM30 417h3v3h-3zM39 417h3v3h-3zM42 417h3v3h-3zM45 417h3v3h-3zM51 417h3v3h-3zM54 417h3v3h-3zM60 417h3v3h-3zM63 417h3v3h-3zM66 417h3v3h-3zM72 417h3v3h-3zM81 417h3v3h-3zM84 417h3v3h-3zM96 417h3v3h-3zM102 417h3v3h-3zM105 417h3v3h-3zM123 417h3v3h-3zM132 417h3v3h-3zM150 417h3v3h-3zM156 417h3v3h-3zM159 417h3v3h-3zM162 417h3v3h-3zM171 417h3v3h-3zM174 417h3v3h-3zM177 417h3v3h-3zM180 417h3v3h-3zM183 417h3v3h-3zM195 417h3v3h-3zM201 417h3v3h-3zM207 417h3v3h-3zM210 417h3v3h-3zM213 417h3v3h-3zM222 417h3v3h-3zM231 417h3v3h-3zM249 417h3v3h-3zM252 417h3v3h-3zM255 417h3v3h-3zM258 417h3v3h-3zM261 417h3v3h-3zM264 417h3v3h-3zM276 417h3v3h-3zM279 417h3v3h-3zM282 417h3v3h-3zM288 417h3v3h-3zM303 417h3v3h-3zM312 417h3v3h-3zM318 417h3v3h-3zM321 417h3v3h-3zM327 417h3v3h-3zM330 417h3v3h-3zM333 417h3v3h-3zM342 417h3v3h-3zM345 417h3v3h-3zM354 417h3v3h-3zM357 417h3v3h-3zM366 417h3v3h-3zM372 417h3v3h-3zM375 417h3v3h-3zM378 417h3v3h-3zM387 417h3v3h-3zM393 417h3v3h-3zM399 417h3v3h-3zM402 417h3v3h-3zM405 417h3v3h-3zM414 417h3v3h-3zM417 417h3v3h-3zM423 417h3v3h-3zM426 417h3v3h-3zM3 420h3v3h-3zM12 420h3v3h-3zM15 420h3v3h-3zM18 420h3v3h-3zM24 420h3v3h-3zM30 420h3v3h-3zM33 420h3v3h-3zM36 420h3v3h-3zM39 420h3v3h-3zM48 420h3v3h-3zM51 420h3v3h-3zM54 420h3v3h-3zM60 420h3v3h-3zM66 420h3v3h-3zM75 420h3v3h-3zM78 420h3v3h-3zM81 420h3v3h-3zM96 420h3v3h-3zM99 420h3v3h-3zM111 420h3v3h-3zM114 420h3v3h-3zM120 420h3v3h-3zM123 420h3v3h-3zM135 420h3v3h-3zM138 420h3v3h-3zM144 420h3v3h-3zM150 420h3v3h-3zM153 420h3v3h-3zM162 420h3v3h-3zM165 420h3v3h-3zM168 420h3v3h-3zM171 420h3v3h-3zM174 420h3v3h-3zM180 420h3v3h-3zM192 420h3v3h-3zM195 420h3v3h-3zM198 420h3v3h-3zM201 420h3v3h-3zM207 420h3v3h-3zM213 420h3v3h-3zM219 420h3v3h-3zM222 420h3v3h-3zM228 420h3v3h-3zM237 420h3v3h-3zM243 420h3v3h-3zM258 420h3v3h-3zM261 420h3v3h-3zM264 420h3v3h-3zM267 420h3v3h-3zM276 420h3v3h-3zM297 420h3v3h-3zM300 420h3v3h-3zM306 420h3v3h-3zM318 420h3v3h-3zM327 420h3v3h-3zM333 420h3v3h-3zM336 420h3v3h-3zM342 420h3v3h-3zM345 420h3v3h-3zM354 420h3v3h-3zM357 420h3v3h-3zM360 420h3v3h-3zM369 420h3v3h-3zM372 420h3v3h-3zM375 420h3v3h-3zM378 420h3v3h-3zM384 420h3v3h-3zM387 420h3v3h-3zM393 420h3v3h-3zM396 420h3v3h-3zM408 420h3v3h-3zM414 420h3v3h-3zM420 420h3v3h-3zM0 423h3v3h-3zM6 423h3v3h-3zM12 423h3v3h-3zM15 423h3v3h-3zM21 423h3v3h-3zM24 423h3v3h-3zM27 423h3v3h-3zM30 423h3v3h-3zM36 423h3v3h-3zM51 423h3v3h-3zM54 423h3v3h-3zM57 423h3v3h-3zM60 423h3v3h-3zM63 423h3v3h-3zM69 423h3v3h-3zM81 423h3v3h-3zM84 423h3v3h-3zM87 423h3v3h-3zM90 423h3v3h-3zM93 423h3v3h-3zM96 423h3v3h-3zM117 423h3v3h-3zM123 423h3v3h-3zM138 423h3v3h-3zM144 423h3v3h-3zM147 423h3v3h-3zM165 423h3v3h-3zM168 423h3v3h-3zM171 423h3v3h-3zM174 423h3v3h-3zM180 423h3v3h-3zM186 423h3v3h-3zM189 423h3v3h-3zM192 423h3v3h-3zM198 423h3v3h-3zM201 423h3v3h-3zM204 423h3v3h-3zM207 423h3v3h-3zM213 423h3v3h-3zM219 423h3v3h-3zM228 423h3v3h-3zM243 423h3v3h-3zM246 423h3v3h-3zM252 423h3v3h-3zM264 423h3v3h-3zM273 423h3v3h-3zM279 423h3v3h-3zM291 423h3v3h-3zM294 423h3v3h-3zM312 423h3v3h-3zM315 423h3v3h-3zM321 423h3v3h-3zM324 423h3v3h-3zM327 423h3v3h-3zM330 423h3v3h-3zM333 423h3v3h-3zM336 423h3v3h-3zM339 423h3v3h-3zM342 423h3v3h-3zM348 423h3v3h-3zM351 423h3v3h-3zM357 423h3v3h-3zM366 423h3v3h-3zM369 423h3v3h-3zM375 423h3v3h-3zM378 423h3v3h-3zM381 423h3v3h-3zM387 423h3v3h-3zM393 423h3v3h-3zM399 423h3v3h-3zM402 423h3v3h-3zM405 423h3v3h-3zM408 423h3v3h-3zM417 423h3v3h-3zM426 423h3v3h-3zM432 423h3v3h-3zM9 426h3v3h-3zM12 426h3v3h-3zM24 426h3v3h-3zM27 426h3v3h-3zM36 426h3v3h-3zM48 426h3v3h-3zM54 426h3v3h-3zM57 426h3v3h-3zM66 426h3v3h-3zM72 426h3v3h-3zM75 426h3v3h-3zM78 426h3v3h-3zM84 426h3v3h-3zM93 426h3v3h-3zM105 426h3v3h-3zM117 426h3v3h-3zM123 426h3v3h-3zM126 426h3v3h-3zM138 426h3v3h-3zM147 426h3v3h-3zM162 426h3v3h-3zM168 426h3v3h-3zM180 426h3v3h-3zM186 426h3v3h-3zM189 426h3v3h-3zM192 426h3v3h-3zM207 426h3v3h-3zM210 426h3v3h-3zM213 426h3v3h-3zM216 426h3v3h-3zM225 426h3v3h-3zM228 426h3v3h-3zM231 426h3v3h-3zM234 426h3v3h-3zM243 426h3v3h-3zM249 426h3v3h-3zM258 426h3v3h-3zM261 426h3v3h-3zM264 426h3v3h-3zM270 426h3v3h-3zM273 426h3v3h-3zM285 426h3v3h-3zM294 426h3v3h-3zM300 426h3v3h-3zM306 426h3v3h-3zM309 426h3v3h-3zM315 426h3v3h-3zM318 426h3v3h-3zM321 426h3v3h-3zM339 426h3v3h-3zM348 426h3v3h-3zM351 426h3v3h-3zM354 426h3v3h-3zM357 426h3v3h-3zM360 426h3v3h-3zM363 426h3v3h-3zM369 426h3v3h-3zM372 426h3v3h-3zM387 426h3v3h-3zM390 426h3v3h-3zM396 426h3v3h-3zM414 426h3v3h-3zM420 426h3v3h-3zM426 426h3v3h-3zM429 426h3v3h-3zM435 426h3v3h-3zM3 429h3v3h-3zM21 429h3v3h-3zM30 429h3v3h-3zM33 429h3v3h-3zM45 429h3v3h-3zM48 429h3v3h-3zM57 429h3v3h-3zM60 429h3v3h-3zM66 429h3v3h-3zM69 429h3v3h-3zM72 429h3v3h-3zM81 429h3v3h-3zM84 429h3v3h-3zM99 429h3v3h-3zM102 429h3v3h-3zM105 429h3v3h-3zM117 429h3v3h-3zM120 429h3v3h-3zM138 429h3v3h-3zM144 429h3v3h-3zM147 429h3v3h-3zM156 429h3v3h-3zM159 429h3v3h-3zM162 429h3v3h-3zM168 429h3v3h-3zM171 429h3v3h-3zM174 429h3v3h-3zM177 429h3v3h-3zM180 429h3v3h-3zM183 429h3v3h-3zM195 429h3v3h-3zM201 429h3v3h-3zM207 429h3v3h-3zM216 429h3v3h-3zM219 429h3v3h-3zM222 429h3v3h-3zM225 429h3v3h-3zM231 429h3v3h-3zM234 429h3v3h-3zM240 429h3v3h-3zM243 429h3v3h-3zM252 429h3v3h-3zM258 429h3v3h-3zM261 429h3v3h-3zM264 429h3v3h-3zM270 429h3v3h-3zM273 429h3v3h-3zM285 429h3v3h-3zM291 429h3v3h-3zM297 429h3v3h-3zM300 429h3v3h-3zM303 429h3v3h-3zM309 429h3v3h-3zM312 429h3v3h-3zM336 429h3v3h-3zM339 429h3v3h-3zM345 429h3v3h-3zM348 429h3v3h-3zM357 429h3v3h-3zM360 429h3v3h-3zM363 429h3v3h-3zM381 429h3v3h-3zM384 429h3v3h-3zM390 429h3v3h-3zM396 429h3v3h-3zM399 429h3v3h-3zM402 429h3v3h-3zM408 429h3v3h-3zM414 429h3v3h-3zM423 429h3v3h-3zM429 429h3v3h-3zM435 429h3v3h-3zM0 432h3v3h-3zM6 432h3v3h-3zM9 432h3v3h-3zM15 432h3v3h-3zM18 432h3v3h-3zM24 432h3v3h-3zM30 432h3v3h-3zM33 432h3v3h-3zM42 432h3v3h-3zM45 432h3v3h-3zM51 432h3v3h-3zM60 432h3v3h-3zM78 432h3v3h-3zM81 432h3v3h-3zM84 432h3v3h-3zM87 432h3v3h-3zM123 432h3v3h-3zM132 432h3v3h-3zM138 432h3v3h-3zM144 432h3v3h-3zM153 432h3v3h-3zM156 432h3v3h-3zM186 432h3v3h-3zM216 432h3v3h-3zM222 432h3v3h-3zM225 432h3v3h-3zM231 432h3v3h-3zM234 432h3v3h-3zM243 432h3v3h-3zM246 432h3v3h-3zM252 432h3v3h-3zM258 432h3v3h-3zM261 432h3v3h-3zM267 432h3v3h-3zM273 432h3v3h-3zM276 432h3v3h-3zM279 432h3v3h-3zM282 432h3v3h-3zM288 432h3v3h-3zM294 432h3v3h-3zM303 432h3v3h-3zM312 432h3v3h-3zM315 432h3v3h-3zM324 432h3v3h-3zM327 432h3v3h-3zM330 432h3v3h-3zM333 432h3v3h-3zM351 432h3v3h-3zM360 432h3v3h-3zM387 432h3v3h-3zM396 432h3v3h-3zM399 432h3v3h-3zM405 432h3v3h-3zM414 432h3v3h-3zM420 432h3v3h-3zM435 432h3v3h-3zM0 435h3v3h-3zM6 435h3v3h-3zM9 435h3v3h-3zM24 435h3v3h-3zM33 435h3v3h-3zM42 435h3v3h-3zM48 435h3v3h-3zM57 435h3v3h-3zM63 435h3v3h-3zM72 435h3v3h-3zM75 435h3v3h-3zM81 435h3v3h-3zM84 435h3v3h-3zM90 435h3v3h-3zM108 435h3v3h-3zM117 435h3v3h-3zM120 435h3v3h-3zM126 435h3v3h-3zM138 435h3v3h-3zM162 435h3v3h-3zM174 435h3v3h-3zM183 435h3v3h-3zM189 435h3v3h-3zM201 435h3v3h-3zM204 435h3v3h-3zM216 435h3v3h-3zM222 435h3v3h-3zM228 435h3v3h-3zM231 435h3v3h-3zM234 435h3v3h-3zM246 435h3v3h-3zM264 435h3v3h-3zM276 435h3v3h-3zM285 435h3v3h-3zM291 435h3v3h-3zM294 435h3v3h-3zM303 435h3v3h-3zM306 435h3v3h-3zM315 435h3v3h-3zM321 435h3v3h-3zM330 435h3v3h-3zM339 435h3v3h-3zM345 435h3v3h-3zM348 435h3v3h-3zM351 435h3v3h-3zM357 435h3v3h-3zM360 435h3v3h-3zM363 435h3v3h-3zM378 435h3v3h-3zM381 435h3v3h-3zM387 435h3v3h-3zM408 435h3v3h-3zM414 435h3v3h-3zM417 435h3v3h-3zM429 435h3v3h-3zM0 438h3v3h-3zM9 438h3v3h-3zM12 438h3v3h-3zM24 438h3v3h-3zM30 438h3v3h-3zM42 438h3v3h-3zM45 438h3v3h-3zM51 438h3v3h-3zM54 438h3v3h-3zM57 438h3v3h-3zM63 438h3v3h-3zM66 438h3v3h-3zM84 438h3v3h-3zM87 438h3v3h-3zM90 438h3v3h-3zM96 438h3v3h-3zM102 438h3v3h-3zM111 438h3v3h-3zM120 438h3v3h-3zM135 438h3v3h-3zM150 438h3v3h-3zM159 438h3v3h-3zM183 438h3v3h-3zM213 438h3v3h-3zM219 438h3v3h-3zM222 438h3v3h-3zM228 438h3v3h-3zM237 438h3v3h-3zM240 438h3v3h-3zM243 438h3v3h-3zM249 438h3v3h-3zM252 438h3v3h-3zM270 438h3v3h-3zM288 438h3v3h-3zM315 438h3v3h-3zM318 438h3v3h-3zM321 438h3v3h-3zM324 438h3v3h-3zM327 438h3v3h-3zM330 438h3v3h-3zM333 438h3v3h-3zM336 438h3v3h-3zM339 438h3v3h-3zM351 438h3v3h-3zM360 438h3v3h-3zM369 438h3v3h-3zM375 438h3v3h-3zM390 438h3v3h-3zM393 438h3v3h-3zM402 438h3v3h-3zM411 438h3v3h-3zM417 438h3v3h-3zM423 438h3v3h-3zM429 438h3v3h-3zM3 441h3v3h-3zM6 441h3v3h-3zM12 441h3v3h-3zM15 441h3v3h-3zM30 441h3v3h-3zM39 441h3v3h-3zM48 441h3v3h-3zM54 441h3v3h-3zM57 441h3v3h-3zM63 441h3v3h-3zM69 441h3v3h-3zM87 441h3v3h-3zM90 441h3v3h-3zM114 441h3v3h-3zM123 441h3v3h-3zM138 441h3v3h-3zM147 441h3v3h-3zM153 441h3v3h-3zM159 441h3v3h-3zM165 441h3v3h-3zM168 441h3v3h-3zM177 441h3v3h-3zM186 441h3v3h-3zM198 441h3v3h-3zM204 441h3v3h-3zM207 441h3v3h-3zM216 441h3v3h-3zM231 441h3v3h-3zM240 441h3v3h-3zM246 441h3v3h-3zM258 441h3v3h-3zM270 441h3v3h-3zM273 441h3v3h-3zM276 441h3v3h-3zM279 441h3v3h-3zM288 441h3v3h-3zM291 441h3v3h-3zM297 441h3v3h-3zM303 441h3v3h-3zM312 441h3v3h-3zM321 441h3v3h-3zM330 441h3v3h-3zM336 441h3v3h-3zM342 441h3v3h-3zM366 441h3v3h-3zM375 441h3v3h-3zM378 441h3v3h-3zM387 441h3v3h-3zM390 441h3v3h-3zM393 441h3v3h-3zM396 441h3v3h-3zM399 441h3v3h-3zM402 441h3v3h-3zM408 441h3v3h-3zM420 441h3v3h-3zM426 441h3v3h-3zM432 441h3v3h-3zM0 444h3v3h-3zM12 444h3v3h-3zM27 444h3v3h-3zM36 444h3v3h-3zM39 444h3v3h-3zM42 444h3v3h-3zM54 444h3v3h-3zM60 444h3v3h-3zM72 444h3v3h-3zM81 444h3v3h-3zM93 444h3v3h-3zM99 444h3v3h-3zM102 444h3v3h-3zM111 444h3v3h-3zM117 444h3v3h-3zM123 444h3v3h-3zM135 444h3v3h-3zM141 444h3v3h-3zM156 444h3v3h-3zM159 444h3v3h-3zM171 444h3v3h-3zM174 444h3v3h-3zM177 444h3v3h-3zM195 444h3v3h-3zM201 444h3v3h-3zM210 444h3v3h-3zM213 444h3v3h-3zM216 444h3v3h-3zM228 444h3v3h-3zM246 444h3v3h-3zM249 444h3v3h-3zM261 444h3v3h-3zM264 444h3v3h-3zM267 444h3v3h-3zM270 444h3v3h-3zM291 444h3v3h-3zM294 444h3v3h-3zM300 444h3v3h-3zM303 444h3v3h-3zM348 444h3v3h-3zM351 444h3v3h-3zM354 444h3v3h-3zM360 444h3v3h-3zM363 444h3v3h-3zM381 444h3v3h-3zM384 444h3v3h-3zM390 444h3v3h-3zM399 444h3v3h-3zM402 444h3v3h-3zM408 444h3v3h-3zM420 444h3v3h-3zM432 444h3v3h-3zM12 447h3v3h-3zM18 447h3v3h-3zM33 447h3v3h-3zM39 447h3v3h-3zM51 447h3v3h-3zM54 447h3v3h-3zM57 447h3v3h-3zM69 447h3v3h-3zM78 447h3v3h-3zM81 447h3v3h-3zM87 447h3v3h-3zM90 447h3v3h-3zM99 447h3v3h-3zM105 447h3v3h-3zM114 447h3v3h-3zM120 447h3v3h-3zM123 447h3v3h-3zM126 447h3v3h-3zM132 447h3v3h-3zM141 447h3v3h-3zM144 447h3v3h-3zM147 447h3v3h-3zM189 447h3v3h-3zM201 447h3v3h-3zM216 447h3v3h-3zM237 447h3v3h-3zM240 447h3v3h-3zM243 447h3v3h-3zM252 447h3v3h-3zM258 447h3v3h-3zM261 447h3v3h-3zM276 447h3v3h-3zM297 447h3v3h-3zM312 447h3v3h-3zM321 447h3v3h-3zM333 447h3v3h-3zM339 447h3v3h-3zM348 447h3v3h-3zM366 447h3v3h-3zM369 447h3v3h-3zM375 447h3v3h-3zM378 447h3v3h-3zM384 447h3v3h-3zM393 447h3v3h-3zM396 447h3v3h-3zM402 447h3v3h-3zM405 447h3v3h-3zM408 447h3v3h-3zM423 447h3v3h-3zM438 447h3v3h-3zM9 450h3v3h-3zM15 450h3v3h-3zM21 450h3v3h-3zM36 450h3v3h-3zM45 450h3v3h-3zM51 450h3v3h-3zM60 450h3v3h-3zM63 450h3v3h-3zM81 450h3v3h-3zM84 450h3v3h-3zM87 450h3v3h-3zM96 450h3v3h-3zM102 450h3v3h-3zM114 450h3v3h-3zM126 450h3v3h-3zM135 450h3v3h-3zM150 450h3v3h-3zM153 450h3v3h-3zM165 450h3v3h-3zM192 450h3v3h-3zM195 450h3v3h-3zM198 450h3v3h-3zM210 450h3v3h-3zM216 450h3v3h-3zM225 450h3v3h-3zM231 450h3v3h-3zM258 450h3v3h-3zM267 450h3v3h-3zM279 450h3v3h-3zM291 450h3v3h-3zM294 450h3v3h-3zM306 450h3v3h-3zM309 450h3v3h-3zM327 450h3v3h-3zM333 450h3v3h-3zM336 450h3v3h-3zM345 450h3v3h-3zM351 450h3v3h-3zM354 450h3v3h-3zM366 450h3v3h-3zM378 450h3v3h-3zM381 450h3v3h-3zM387 450h3v3h-3zM396 450h3v3h-3zM417 450h3v3h-3zM429 450h3v3h-3zM432 450h3v3h-3zM438 450h3v3h-3zM3 453h3v3h-3zM6 453h3v3h-3zM15 453h3v3h-3zM39 453h3v3h-3zM42 453h3v3h-3zM57 453h3v3h-3zM66 453h3v3h-3zM78 453h3v3h-3zM81 453h3v3h-3zM87 453h3v3h-3zM90 453h3v3h-3zM96 453h3v3h-3zM108 453h3v3h-3zM117 453h3v3h-3zM129 453h3v3h-3zM132 453h3v3h-3zM135 453h3v3h-3zM138 453h3v3h-3zM150 453h3v3h-3zM156 453h3v3h-3zM162 453h3v3h-3zM171 453h3v3h-3zM186 453h3v3h-3zM204 453h3v3h-3zM207 453h3v3h-3zM210 453h3v3h-3zM219 453h3v3h-3zM231 453h3v3h-3zM237 453h3v3h-3zM246 453h3v3h-3zM252 453h3v3h-3zM258 453h3v3h-3zM261 453h3v3h-3zM276 453h3v3h-3zM285 453h3v3h-3zM315 453h3v3h-3zM339 453h3v3h-3zM354 453h3v3h-3zM363 453h3v3h-3zM387 453h3v3h-3zM390 453h3v3h-3zM402 453h3v3h-3zM408 453h3v3h-3zM411 453h3v3h-3zM429 453h3v3h-3zM432 453h3v3h-3zM438 453h3v3h-3zM6 456h3v3h-3zM9 456h3v3h-3zM18 456h3v3h-3zM24 456h3v3h-3zM36 456h3v3h-3zM57 456h3v3h-3zM66 456h3v3h-3zM75 456h3v3h-3zM78 456h3v3h-3zM81 456h3v3h-3zM87 456h3v3h-3zM99 456h3v3h-3zM105 456h3v3h-3zM108 456h3v3h-3zM111 456h3v3h-3zM138 456h3v3h-3zM159 456h3v3h-3zM174 456h3v3h-3zM195 456h3v3h-3zM210 456h3v3h-3zM213 456h3v3h-3zM234 456h3v3h-3zM264 456h3v3h-3zM273 456h3v3h-3zM294 456h3v3h-3zM297 456h3v3h-3zM300 456h3v3h-3zM303 456h3v3h-3zM309 456h3v3h-3zM312 456h3v3h-3zM321 456h3v3h-3zM327 456h3v3h-3zM336 456h3v3h-3zM339 456h3v3h-3zM342 456h3v3h-3zM348 456h3v3h-3zM357 456h3v3h-3zM363 456h3v3h-3zM369 456h3v3h-3zM372 456h3v3h-3zM399 456h3v3h-3zM423 456h3v3h-3zM432 456h3v3h-3zM438 456h3v3h-3zM9 459h3v3h-3zM27 459h3v3h-3zM54 459h3v3h-3zM57 459h3v3h-3zM60 459h3v3h-3zM72 459h3v3h-3zM78 459h3v3h-3zM90 459h3v3h-3zM105 459h3v3h-3zM114 459h3v3h-3zM135 459h3v3h-3zM150 459h3v3h-3zM153 459h3v3h-3zM165 459h3v3h-3zM168 459h3v3h-3zM180 459h3v3h-3zM195 459h3v3h-3zM222 459h3v3h-3zM237 459h3v3h-3zM240 459h3v3h-3zM261 459h3v3h-3zM267 459h3v3h-3zM282 459h3v3h-3zM303 459h3v3h-3zM306 459h3v3h-3zM318 459h3v3h-3zM327 459h3v3h-3zM330 459h3v3h-3zM333 459h3v3h-3zM342 459h3v3h-3zM345 459h3v3h-3zM351 459h3v3h-3zM354 459h3v3h-3zM357 459h3v3h-3zM369 459h3v3h-3zM375 459h3v3h-3zM381 459h3v3h-3zM384 459h3v3h-3zM399 459h3v3h-3zM408 459h3v3h-3zM438 459h3v3h-3zM3 462h3v3h-3zM12 462h3v3h-3zM21 462h3v3h-3zM33 462h3v3h-3zM48 462h3v3h-3zM57 462h3v3h-3zM87 462h3v3h-3zM111 462h3v3h-3zM114 462h3v3h-3zM141 462h3v3h-3zM144 462h3v3h-3zM159 462h3v3h-3zM174 462h3v3h-3zM180 462h3v3h-3zM201 462h3v3h-3zM204 462h3v3h-3zM216 462h3v3h-3zM222 462h3v3h-3zM237 462h3v3h-3zM255 462h3v3h-3zM258 462h3v3h-3zM276 462h3v3h-3zM279 462h3v3h-3zM282 462h3v3h-3zM294 462h3v3h-3zM306 462h3v3h-3zM324 462h3v3h-3zM327 462h3v3h-3zM333 462h3v3h-3zM336 462h3v3h-3zM357 462h3v3h-3zM369 462h3v3h-3zM372 462h3v3h-3zM381 462h3v3h-3zM384 462h3v3h-3zM390 462h3v3h-3zM396 462h3v3h-3zM399 462h3v3h-3zM405 462h3v3h-3zM411 462h3v3h-3zM417 462h3v3h-3zM423 462h3v3h-3zM0 465h3v3h-3zM3 465h3v3h-3zM12 465h3v3h-3zM18 465h3v3h-3zM21 465h3v3h-3zM39 465h3v3h-3zM54 465h3v3h-3zM63 465h3v3h-3zM66 465h3v3h-3zM81 465h3v3h-3zM84 465h3v3h-3zM93 465h3v3h-3zM96 465h3v3h-3zM132 465h3v3h-3zM135 465h3v3h-3zM168 465h3v3h-3zM174 465h3v3h-3zM177 465h3v3h-3zM180 465h3v3h-3zM183 465h3v3h-3zM186 465h3v3h-3zM189 465h3v3h-3zM192 465h3v3h-3zM195 465h3v3h-3zM201 465h3v3h-3zM207 465h3v3h-3zM231 465h3v3h-3zM234 465h3v3h-3zM243 465h3v3h-3zM246 465h3v3h-3zM255 465h3v3h-3zM294 465h3v3h-3zM303 465h3v3h-3zM309 465h3v3h-3zM318 465h3v3h-3zM372 465h3v3h-3zM399 465h3v3h-3zM405 465h3v3h-3zM438 465h3v3h-3zM3 468h3v3h-3zM9 468h3v3h-3zM12 468h3v3h-3zM18 468h3v3h-3zM24 468h3v3h-3zM36 468h3v3h-3zM42 468h3v3h-3zM45 468h3v3h-3zM60 468h3v3h-3zM72 468h3v3h-3zM81 468h3v3h-3zM105 468h3v3h-3zM135 468h3v3h-3zM141 468h3v3h-3zM171 468h3v3h-3zM177 468h3v3h-3zM180 468h3v3h-3zM183 468h3v3h-3zM189 468h3v3h-3zM198 468h3v3h-3zM201 468h3v3h-3zM216 468h3v3h-3zM222 468h3v3h-3zM240 468h3v3h-3zM246 468h3v3h-3zM297 468h3v3h-3zM303 468h3v3h-3zM318 468h3v3h-3zM342 468h3v3h-3zM363 468h3v3h-3zM390 468h3v3h-3zM399 468h3v3h-3zM405 468h3v3h-3zM411 468h3v3h-3zM9 471h3v3h-3zM15 471h3v3h-3zM39 471h3v3h-3zM42 471h3v3h-3zM57 471h3v3h-3zM99 471h3v3h-3zM102 471h3v3h-3zM108 471h3v3h-3zM141 471h3v3h-3zM177 471h3v3h-3zM186 471h3v3h-3zM213 471h3v3h-3zM225 471h3v3h-3zM234 471h3v3h-3zM237 471h3v3h-3zM258 471h3v3h-3zM267 471h3v3h-3zM270 471h3v3h-3zM279 471h3v3h-3zM306 471h3v3h-3zM312 471h3v3h-3zM315 471h3v3h-3zM321 471h3v3h-3zM324 471h3v3h-3zM327 471h3v3h-3zM330 471h3v3h-3zM333 471h3v3h-3zM336 471h3v3h-3zM369 471h3v3h-3zM402 471h3v3h-3zM417 471h3v3h-3zM423 471h3v3h-3zM0 474h3v3h-3zM6 474h3v3h-3zM15 474h3v3h-3zM18 474h3v3h-3zM33 474h3v3h-3zM36 474h3v3h-3zM66 474h3v3h-3zM69 474h3v3h-3zM108 474h3v3h-3zM117 474h3v3h-3zM126 474h3v3h-3zM150 474h3v3h-3zM177 474h3v3h-3zM195 474h3v3h-3zM237 474h3v3h-3zM312 474h3v3h-3zM336 474h3v3h-3zM342 474h3v3h-3zM354 474h3v3h-3zM357 474h3v3h-3zM363 474h3v3h-3zM381 474h3v3h-3zM393 474h3v3h-3zM6 477h3v3h-3zM9 477h3v3h-3zM15 477h3v3h-3zM96 477h3v3h-3zM123 477h3v3h-3zM162 477h3v3h-3zM189 477h3v3h-3zM195 477h3v3h-3zM198 477h3v3h-3zM231 477h3v3h-3zM234 477h3v3h-3zM246 477h3v3h-3zM252 477h3v3h-3zM255 477h3v3h-3zM276 477h3v3h-3zM288 477h3v3h-3zM300 477h3v3h-3zM321 477h3v3h-3zM327 477h3v3h-3zM345 477h3v3h-3zM375 477h3v3h-3zM387 477h3v3h-3zM393 477h3v3h-3zM405 477h3v3h-3zM432 477h3v3h-3zM438 477h3v3h-3zM6 480h3v3h-3zM18 480h3v3h-3zM21 480h3v3h-3zM33 480h3v3h-3zM36 480h3v3h-3zM39 480h3v3h-3zM42 480h3v3h-3zM54 480h3v3h-3zM63 480h3v3h-3zM111 480h3v3h-3zM153 480h3v3h-3zM183 480h3v3h-3zM192 480h3v3h-3zM195 480h3v3h-3zM207 480h3v3h-3zM210 480h3v3h-3zM213 480h3v3h-3zM219 480h3v3h-3zM240 480h3v3h-3zM267 480h3v3h-3zM282 480h3v3h-3zM294 480h3v3h-3zM321 480h3v3h-3zM339 480h3v3h-3zM354 480h3v3h-3zM363 480h3v3h-3zM378 480h3v3h-3zM384 480h3v3h-3zM402 480h3v3h-3zM411 480h3v3h-3zM429 480h3v3h-3zM432 480h3v3h-3zM438 480h3v3h-3zM9 483h3v3h-3zM18 483h3v3h-3zM27 483h3v3h-3zM30 483h3v3h-3zM36 483h3v3h-3zM84 483h3v3h-3zM87 483h3v3h-3zM111 483h3v3h-3zM117 483h3v3h-3zM153 483h3v3h-3zM186 483h3v3h-3zM201 483h3v3h-3zM222 483h3v3h-3zM225 483h3v3h-3zM303 483h3v3h-3zM306 483h3v3h-3zM312 483h3v3h-3zM345 483h3v3h-3zM348 483h3v3h-3zM360 483h3v3h-3zM384 483h3v3h-3zM399 483h3v3h-3zM414 483h3v3h-3zM12 486h3v3h-3zM33 486h3v3h-3zM69 486h3v3h-3zM93 486h3v3h-3zM96 486h3v3h-3zM204 486h3v3h-3zM213 486h3v3h-3zM273 486h3v3h-3zM315 486h3v3h-3zM366 486h3v3h-3zM378 486h3v3h-3zM390 486h3v3h-3zM393 486h3v3h-3zM432 486h3v3h-3zM9 489h3v3h-3zM18 489h3v3h-3zM42 489h3v3h-3zM132 489h3v3h-3zM165 489h3v3h-3zM189 489h3v3h-3zM195 489h3v3h-3zM213 489h3v3h-3zM258 489h3v3h-3zM285 489h3v3h-3zM306 489h3v3h-3zM312 489h3v3h-3zM315 489h3v3h-3zM354 489h3v3h-3zM363 489h3v3h-3zM375 489h3v3h-3zM378 489h3v3h-3zM12 492h3v3h-3zM15 492h3v3h-3zM27 492h3v3h-3zM69 492h3v3h-3zM75 492h3v3h-3zM96 492h3v3h-3zM123 492h3v3h-3zM132 492h3v3h-3zM135 492h3v3h-3zM141 492h3v3h-3zM186 492h3v3h-3zM192 492h3v3h-3zM246 492h3v3h-3zM321 492h3v3h-3zM342 492h3v3h-3zM372 492h3v3h-3zM423 492h3v3h-3zM18 495h3v3h-3zM51 495h3v3h-3zM84 495h3v3h-3zM93 495h3v3h-3zM99 495h3v3h-3zM129 495h3v3h-3zM135 495h3v3h-3zM141 495h3v3h-3zM144 495h3v3h-3zM147 495h3v3h-3zM186 495h3v3h-3zM219 495h3v3h-3zM321 495h3v3h-3zM363 495h3v3h-3zM384 495h3v3h-3zM399 495h3v3h-3zM3 498h3v3h-3zM87 498h3v3h-3zM114 498h3v3h-3zM123 498h3v3h-3zM138 498h3v3h-3zM216 498h3v3h-3zM228 498h3v3h-3zM249 498h3v3h-3zM258 498h3v3h-3zM270 498h3v3h-3zM297 498h3v3h-3zM432 498h3v3h-3zM54 501h3v3h-3zM63 501h3v3h-3zM90 501h3v3h-3zM105 501h3v3h-3zM141 501h3v3h-3zM144 501h3v3h-3zM216 501h3v3h-3zM255 501h3v3h-3zM384 501h3v3h-3zM402 501h3v3h-3zM405 501h3v3h-3zM414 501h3v3h-3zM27 504h3v3h-3zM66 504h3v3h-3zM75 504h3v3h-3zM96 504h3v3h-3zM198 504h3v3h-3zM225 504h3v3h-3zM240 504h3v3h-3zM246 504h3v3h-3zM294 504h3v3h-3zM321 504h3v3h-3zM339 504h3v3h-3zM345 504h3v3h-3zM378 504h3v3h-3zM435 504h3v3h-3zM39 507h3v3h-3zM66 507h3v3h-3zM192 507h3v3h-3zM246 507h3v3h-3zM264 507h3v3h-3zM318 507h3v3h-3zM321 507h3v3h-3zM360 507h3v3h-3zM372 507h3v3h-3zM381 507h3v3h-3zM105 510h3v3h-3zM156 510h3v3h-3zM159 510h3v3h-3zM234 510h3v3h-3zM273 510h3v3h-3zM351 510h3v3h-3zM369 510h3v3h-3zM399 510h3v3h-3zM408 510h3v3h-3zM141 513h3v3h-3zM156 513h3v3h-3zM210 513h3v3h-3zM324 513h3v3h-3zM96 516h3v3h-3zM168 516h3v3h-3zM234 516h3v3h-3zM420 516h3v3h-3zM6 519h3v3h-3zM168 519h3v3h-3zM273 519h3v3h-3zM378 519h3v3h-3zM135 522h3v3h-3zM108 525h3v3h-3zM132 525h3v3h-3zM168 525h3v3h-3zM174 525h3v3h-3zM210 528h3v3h-3zM354 528h3v3h-3zM72 537h3v3h-3z"/></svg>